<svg width="684" height="447" viewBox="0 0 684 447" fill="none" xmlns="http://www.w3.org/2000/svg">
<path d="M162.909 96.1219C163.85 86.24 166.448 76.5759 170.6 67.5153C171.758 64.9939 173.031 62.5279 174.422 60.1175C174.491 59.9914 174.508 59.8439 174.468 59.706C174.429 59.5681 174.336 59.4506 174.209 59.3784C174.082 59.3061 173.931 59.2847 173.789 59.3186C173.646 59.3525 173.523 59.4392 173.444 59.5603C168.389 68.3396 164.847 77.8698 162.96 87.7696C162.436 90.5342 162.041 93.3183 161.777 96.1219C161.71 96.8291 162.843 96.8246 162.909 96.1219Z" fill="#E6E6E6"/>
<path d="M177.163 61.888C181.122 61.888 184.332 58.7576 184.332 54.896C184.332 51.0344 181.122 47.9039 177.163 47.9039C173.204 47.9039 169.994 51.0344 169.994 54.896C169.994 58.7576 173.204 61.888 177.163 61.888Z" fill="#E6E6E6"/>
<path d="M163.642 96.3076C164.253 89.8968 165.938 83.6272 168.632 77.7492C169.383 76.1134 170.209 74.5136 171.111 72.9499C171.156 72.8681 171.167 72.7724 171.141 72.6829C171.116 72.5935 171.055 72.5173 170.973 72.4704C170.891 72.4235 170.793 72.4096 170.701 72.4316C170.608 72.4536 170.528 72.5098 170.477 72.5884C167.197 78.284 164.899 84.4666 163.676 90.8891C163.335 92.6826 163.079 94.4888 162.908 96.3076C162.865 96.7664 163.599 96.7635 163.642 96.3076Z" fill="#E6E6E6"/>
<path d="M172.89 74.0985C175.458 74.0985 177.54 72.0676 177.54 69.5624C177.54 67.0572 175.458 65.0264 172.89 65.0264C170.321 65.0264 168.239 67.0572 168.239 69.5624C168.239 72.0676 170.321 74.0985 172.89 74.0985Z" fill="#E6E6E6"/>
<path d="M162.716 95.8794C159.154 90.4584 156.53 84.5038 154.947 78.2532C154.507 76.513 154.15 74.7559 153.875 72.9819C153.859 72.8903 153.807 72.8083 153.731 72.7532C153.654 72.6981 153.558 72.6742 153.464 72.6865C153.37 72.6989 153.284 72.7466 153.225 72.8194C153.166 72.8923 153.138 72.9848 153.147 73.0772C154.153 79.5356 156.24 85.7889 159.325 91.5871C160.188 93.2054 161.125 94.783 162.137 96.3199C162.392 96.7077 162.969 96.2648 162.716 95.8794Z" fill="#E6E6E6"/>
<path d="M153.141 73.78C155.71 73.78 157.792 71.7491 157.792 69.2439C157.792 66.7388 155.71 64.7079 153.141 64.7079C150.573 64.7079 148.491 66.7388 148.491 69.2439C148.491 71.7491 150.573 73.78 153.141 73.78Z" fill="#E6E6E6"/>
<path d="M148.439 99.8927V90.9803C148.44 90.0942 148.801 89.2447 149.443 88.6182C150.086 87.9916 150.957 87.6392 151.865 87.6382H173.186C174.095 87.6392 174.966 87.9916 175.608 88.6182C176.25 89.2447 176.612 90.0942 176.613 90.9803V99.8927C176.612 100.779 176.25 101.628 175.608 102.255C174.966 102.881 174.095 103.234 173.186 103.235H151.865C150.957 103.234 150.086 102.881 149.443 102.255C148.801 101.628 148.44 100.779 148.439 99.8927Z" fill="#F2F2F2"/>
<path d="M172.425 43.0764H163.287C162.378 43.0754 161.508 42.723 160.865 42.0964C160.223 41.4698 159.861 40.6204 159.86 39.7343V3.34213C159.861 2.45605 160.223 1.60655 160.865 0.979991C161.508 0.353436 162.378 0.000998599 163.287 0L172.425 0C173.333 0.000998599 174.204 0.353436 174.846 0.979991C175.489 1.60655 175.85 2.45605 175.851 3.34213V39.7343C175.85 40.6204 175.489 41.4698 174.846 42.0964C174.204 42.723 173.333 43.0754 172.425 43.0764Z" fill="#F2F2F2"/>
<path d="M175.47 7.05566L160.241 7.05566V10.0261L175.47 10.0261V7.05566Z" fill="#CCCCCC"/>
<path d="M175.47 30.0792L160.241 30.0792V33.0497H175.47V30.0792Z" fill="#CCCCCC"/>
<path d="M195.268 43.0764H186.131C185.222 43.0754 184.351 42.723 183.709 42.0964C183.066 41.4698 182.705 40.6204 182.704 39.7343V3.34213C182.705 2.45605 183.066 1.60655 183.709 0.979991C184.351 0.353436 185.222 0.000998599 186.131 0L195.268 0C196.177 0.000998599 197.048 0.353436 197.69 0.979991C198.332 1.60655 198.694 2.45605 198.695 3.34213V39.7343C198.694 40.6204 198.332 41.4698 197.69 42.0964C197.048 42.723 196.177 43.0754 195.268 43.0764Z" fill="#F2F2F2"/>
<path d="M198.314 7.05566L183.085 7.05566V10.0261L198.314 10.0261V7.05566Z" fill="#CCCCCC"/>
<path d="M198.314 30.0792L183.085 30.0792V33.0497H198.314V30.0792Z" fill="#CCCCCC"/>
<path d="M218.112 43.0764H208.974C208.066 43.0754 207.195 42.723 206.552 42.0964C205.91 41.4698 205.549 40.6204 205.548 39.7343V3.34213C205.549 2.45605 205.91 1.60655 206.552 0.979991C207.195 0.353436 208.066 0.000998599 208.974 0L218.112 0C219.02 0.000998599 219.891 0.353436 220.534 0.979991C221.176 1.60655 221.537 2.45605 221.538 3.34213V39.7343C221.537 40.6204 221.176 41.4698 220.534 42.0964C219.891 42.723 219.02 43.0754 218.112 43.0764Z" fill="#F2F2F2"/>
<path d="M221.158 7.05566L205.928 7.05566V10.0261L221.158 10.0261V7.05566Z" fill="#CCCCCC"/>
<path d="M221.158 30.0792L205.928 30.0792V33.0497H221.158V30.0792Z" fill="#CCCCCC"/>
<path d="M230.295 103.235H221.157C220.249 103.234 219.378 102.881 218.736 102.255C218.093 101.628 217.732 100.779 217.731 99.8927V63.5006C217.732 62.6145 218.093 61.765 218.736 61.1384C219.378 60.5119 220.249 60.1594 221.157 60.1584H230.295C231.204 60.1594 232.075 60.5119 232.717 61.1384C233.359 61.765 233.721 62.6145 233.722 63.5006V99.8927C233.721 100.779 233.359 101.628 232.717 102.255C232.075 102.881 231.204 103.234 230.295 103.235Z" fill="#F2F2F2"/>
<path d="M233.341 67.2141H218.112V70.1846H233.341V67.2141Z" fill="#CCCCCC"/>
<path d="M233.341 90.2377H218.112V93.2081H233.341V90.2377Z" fill="#CCCCCC"/>
<path d="M253.139 103.235H244.001C243.093 103.234 242.222 102.881 241.579 102.255C240.937 101.628 240.575 100.779 240.574 99.8927V63.5006C240.575 62.6145 240.937 61.765 241.579 61.1384C242.222 60.5119 243.093 60.1594 244.001 60.1584H253.139C254.047 60.1594 254.918 60.5119 255.561 61.1384C256.203 61.765 256.564 62.6145 256.565 63.5006V99.8927C256.564 100.779 256.203 101.628 255.561 102.255C254.918 102.881 254.047 103.234 253.139 103.235Z" fill="#F2F2F2"/>
<path d="M256.185 67.2141H240.955V70.1846H256.185V67.2141Z" fill="#CCCCCC"/>
<path d="M256.185 90.2377H240.955V93.2081H256.185V90.2377Z" fill="#CCCCCC"/>
<path d="M275.982 103.235H266.845C265.936 103.234 265.065 102.881 264.423 102.255C263.78 101.628 263.419 100.779 263.418 99.8927V63.5006C263.419 62.6145 263.78 61.765 264.423 61.1384C265.065 60.5119 265.936 60.1594 266.845 60.1584H275.982C276.891 60.1594 277.762 60.5119 278.404 61.1384C279.047 61.765 279.408 62.6145 279.409 63.5006V99.8927C279.408 100.779 279.047 101.628 278.404 102.255C277.762 102.881 276.891 103.234 275.982 103.235Z" fill="#F2F2F2"/>
<path d="M279.028 67.2141H263.799V70.1846H279.028V67.2141Z" fill="#CCCCCC"/>
<path d="M279.028 90.2377H263.799V93.2081H279.028V90.2377Z" fill="#CCCCCC"/>
<path d="M170.14 163.393H161.003C160.094 163.392 159.223 163.04 158.581 162.413C157.938 161.787 157.577 160.937 157.576 160.051V123.659C157.577 122.773 157.938 121.923 158.581 121.297C159.223 120.67 160.094 120.318 161.003 120.317H170.14C171.049 120.318 171.92 120.67 172.562 121.297C173.204 121.923 173.566 122.773 173.567 123.659V160.051C173.566 160.937 173.204 161.787 172.562 162.413C171.92 163.04 171.049 163.392 170.14 163.393Z" fill="#F2F2F2"/>
<path d="M173.186 127.372H157.957V130.343H173.186V127.372Z" fill="#CCCCCC"/>
<path d="M173.186 150.396H157.957V153.366H173.186V150.396Z" fill="#CCCCCC"/>
<path d="M192.984 163.393H183.846C182.938 163.392 182.067 163.04 181.424 162.413C180.782 161.787 180.421 160.937 180.42 160.051V123.659C180.421 122.773 180.782 121.923 181.424 121.297C182.067 120.67 182.938 120.318 183.846 120.317H192.984C193.892 120.318 194.763 120.67 195.406 121.297C196.048 121.923 196.409 122.773 196.41 123.659V160.051C196.409 160.937 196.048 161.787 195.406 162.413C194.763 163.04 193.892 163.392 192.984 163.393Z" fill="#F2F2F2"/>
<path d="M196.03 127.372H180.8V130.343H196.03V127.372Z" fill="#CCCCCC"/>
<path d="M196.03 150.396H180.8V153.366H196.03V150.396Z" fill="#CCCCCC"/>
<path d="M215.827 163.393H206.69C205.781 163.392 204.91 163.04 204.268 162.413C203.626 161.787 203.264 160.937 203.263 160.051V123.659C203.264 122.773 203.626 121.923 204.268 121.297C204.91 120.67 205.781 120.318 206.69 120.317H215.827C216.736 120.318 217.607 120.67 218.249 121.297C218.892 121.923 219.253 122.773 219.254 123.659V160.051C219.253 160.937 218.892 161.787 218.249 162.413C217.607 163.04 216.736 163.392 215.827 163.393Z" fill="#F2F2F2"/>
<path d="M218.873 127.372H203.644V130.343H218.873V127.372Z" fill="#CCCCCC"/>
<path d="M218.873 150.396H203.644V153.366H218.873V150.396Z" fill="#CCCCCC"/>
<path d="M240.955 43.0764H231.818C230.909 43.0754 230.038 42.723 229.396 42.0964C228.754 41.4698 228.392 40.6204 228.391 39.7343V3.34213C228.392 2.45605 228.754 1.60655 229.396 0.979991C230.038 0.353436 230.909 0.000998599 231.818 0L240.955 0C241.864 0.000998599 242.735 0.353436 243.377 0.979991C244.02 1.60655 244.381 2.45605 244.382 3.34213V39.7343C244.381 40.6204 244.02 41.4698 243.377 42.0964C242.735 42.723 241.864 43.0754 240.955 43.0764Z" fill="#F2F2F2"/>
<path d="M244.001 7.05566L228.772 7.05566V10.0261L244.001 10.0261V7.05566Z" fill="#CCCCCC"/>
<path d="M244.001 30.0792L228.772 30.0792V33.0497H244.001V30.0792Z" fill="#CCCCCC"/>
<path d="M263.799 43.0764H254.661C253.753 43.0754 252.882 42.723 252.24 42.0964C251.597 41.4698 251.236 40.6204 251.235 39.7343V3.34213C251.236 2.45605 251.597 1.60655 252.24 0.979991C252.882 0.353436 253.753 0.000998599 254.661 0L263.799 0C264.707 0.000998599 265.578 0.353436 266.221 0.979991C266.863 1.60655 267.225 2.45605 267.226 3.34213V39.7343C267.225 40.6204 266.863 41.4698 266.221 42.0964C265.578 42.723 264.707 43.0754 263.799 43.0764Z" fill="#F2F2F2"/>
<path d="M266.845 7.05566L251.616 7.05566V10.0261L266.845 10.0261V7.05566Z" fill="#CCCCCC"/>
<path d="M266.845 30.0792L251.616 30.0792V33.0497H266.845V30.0792Z" fill="#CCCCCC"/>
<path d="M286.643 43.0764H277.505C276.597 43.0754 275.726 42.723 275.083 42.0964C274.441 41.4698 274.079 40.6204 274.078 39.7343V3.34213C274.079 2.45605 274.441 1.60655 275.083 0.979991C275.726 0.353436 276.597 0.000998599 277.505 0L286.643 0C287.551 0.000998599 288.422 0.353436 289.064 0.979991C289.707 1.60655 290.068 2.45605 290.069 3.34213V39.7343C290.068 40.6204 289.707 41.4698 289.064 42.0964C288.422 42.723 287.551 43.0754 286.643 43.0764Z" fill="#F2F2F2"/>
<path d="M289.688 7.05566L274.459 7.05566V10.0261L289.688 10.0261V7.05566Z" fill="#CCCCCC"/>
<path d="M289.688 30.0792L274.459 30.0792V33.0497H289.688V30.0792Z" fill="#CCCCCC"/>
<path d="M309.486 43.0764H300.349C299.44 43.0754 298.569 42.723 297.927 42.0964C297.284 41.4698 296.923 40.6204 296.922 39.7343V3.34213C296.923 2.45605 297.284 1.60655 297.927 0.979991C298.569 0.353436 299.44 0.000998599 300.349 0L309.486 0C310.395 0.000998599 311.266 0.353436 311.908 0.979991C312.55 1.60655 312.912 2.45605 312.913 3.34213V39.7343C312.912 40.6204 312.55 41.4698 311.908 42.0964C311.266 42.723 310.395 43.0754 309.486 43.0764Z" fill="#F2F2F2"/>
<path d="M312.532 7.05566L297.303 7.05566V10.0261L312.532 10.0261V7.05566Z" fill="#CCCCCC"/>
<path d="M312.532 30.0792L297.303 30.0792V33.0497H312.532V30.0792Z" fill="#CCCCCC"/>
<path d="M343.707 44.1903L126.693 44.1903C126.491 44.1903 126.297 44.1121 126.155 43.9728C126.012 43.8335 125.932 43.6446 125.932 43.4477C125.932 43.2507 126.012 43.0618 126.155 42.9226C126.297 42.7833 126.491 42.7051 126.693 42.7051L343.707 42.7051C343.909 42.7051 344.103 42.7833 344.246 42.9226C344.389 43.0618 344.469 43.2507 344.469 43.4477C344.469 43.6446 344.389 43.8335 344.246 43.9728C344.103 44.1121 343.909 44.1903 343.707 44.1903Z" fill="#CCCCCC"/>
<path d="M343.707 104.349L126.693 104.349C126.491 104.349 126.297 104.271 126.155 104.131C126.012 103.992 125.932 103.803 125.932 103.606C125.932 103.409 126.012 103.22 126.155 103.081C126.297 102.942 126.491 102.864 126.693 102.864L343.707 102.864C343.909 102.864 344.103 102.942 344.246 103.081C344.389 103.22 344.469 103.409 344.469 103.606C344.469 103.803 344.389 103.992 344.246 104.131C344.103 104.271 343.909 104.349 343.707 104.349Z" fill="#CCCCCC"/>
<path d="M343.707 164.507L126.693 164.507C126.491 164.507 126.297 164.429 126.155 164.29C126.012 164.15 125.932 163.962 125.932 163.765C125.932 163.568 126.012 163.379 126.155 163.239C126.297 163.1 126.491 163.022 126.693 163.022L343.707 163.022C343.909 163.022 344.103 163.1 344.246 163.239C344.389 163.379 344.469 163.568 344.469 163.765C344.469 163.962 344.389 164.15 344.246 164.29C344.103 164.429 343.909 164.507 343.707 164.507Z" fill="#CCCCCC"/>
<path d="M330.855 281.098C330.855 275.355 308.695 270.7 281.36 270.7C254.025 270.7 231.866 275.355 231.866 281.098C231.866 284.778 240.976 288.009 254.709 289.857L254.709 346.826C254.709 348.106 255.231 349.334 256.159 350.24C257.087 351.145 258.346 351.654 259.659 351.654C260.971 351.654 262.23 351.145 263.159 350.24C264.087 349.334 264.608 348.106 264.608 346.826V290.883C269.841 291.279 275.479 291.495 281.36 291.495C287.241 291.495 292.879 291.279 298.112 290.883V346.826C298.112 348.106 298.634 349.334 299.562 350.24C300.49 351.145 301.749 351.654 303.062 351.654C304.374 351.654 305.633 351.145 306.561 350.24C307.49 349.334 308.011 348.106 308.011 346.826V289.857C321.744 288.009 330.855 284.778 330.855 281.098Z" fill="#CCCCCC"/>
<path d="M321.331 342.313H330.667L335.108 307.193H321.33L321.331 342.313Z" fill="#A0616A"/>
<path d="M348.67 350.767L319.331 350.769L319.33 339.712L337.334 339.711C340.341 339.711 343.224 340.876 345.35 342.949C347.476 345.023 348.67 347.835 348.67 350.767L348.67 350.767Z" fill="#2F2E41"/>
<path d="M335.904 337.232L344.811 334.505L338.268 299.699L325.122 303.722L335.904 337.232Z" fill="#A0616A"/>
<path d="M364.584 337.314L336.59 345.883L333.196 335.334L350.374 330.076C353.242 329.198 356.351 329.467 359.016 330.825C361.681 332.182 363.684 334.517 364.584 337.314Z" fill="#2F2E41"/>
<path d="M329.658 321.067L312.581 277.344C308.75 278.221 276.62 285.156 265.859 273.98C262.171 270.15 261.452 264.601 263.721 257.487L270.001 249.789L270.197 249.799C272.571 249.921 328.398 252.973 332.225 269.398C335.452 283.245 341.345 309.062 343.074 316.645C343.249 317.43 343.129 318.251 342.736 318.958C342.343 319.665 341.702 320.21 340.931 320.495L334.064 323.006C333.681 323.147 333.275 323.219 332.867 323.219C332.171 323.219 331.493 323.013 330.92 322.629C330.347 322.245 329.907 321.7 329.658 321.067Z" fill="#2F2E41"/>
<path d="M319.759 326.266L302.682 282.542C298.851 283.42 266.721 290.354 255.96 279.179C252.272 275.349 251.553 269.8 253.822 262.685L260.102 254.988L260.298 254.998C262.672 255.12 318.5 258.172 322.327 274.597C325.553 288.444 331.446 314.261 333.175 321.844C333.351 322.629 333.231 323.45 332.837 324.157C332.444 324.864 331.803 325.409 331.032 325.693L324.165 328.205C323.782 328.346 323.377 328.418 322.968 328.418C322.273 328.418 321.594 328.212 321.021 327.828C320.448 327.443 320.008 326.899 319.759 326.266Z" fill="#2F2E41"/>
<path d="M342.838 221.454C342.585 221.784 342.36 222.132 342.164 222.495L304.609 226.355L299.203 219.125L286.95 225.657L297.568 243.2L343.627 231.746C344.789 232.851 346.268 233.585 347.868 233.85C349.468 234.115 351.113 233.898 352.584 233.229C354.055 232.56 355.282 231.47 356.102 230.104C356.922 228.739 357.297 227.162 357.176 225.583C357.055 224.005 356.444 222.499 355.424 221.268C354.405 220.036 353.025 219.136 351.469 218.688C349.912 218.24 348.253 218.265 346.711 218.759C345.169 219.253 343.818 220.193 342.838 221.454V221.454Z" fill="#A0616A"/>
<path d="M253.581 264.994C253.067 264.633 252.665 264.14 252.421 263.57C252.177 263 252.099 262.375 252.196 261.764C254.315 248.141 251.877 228.626 249.459 214.653C248.964 211.818 249.156 208.909 250.021 206.16C250.886 203.411 252.399 200.897 254.439 198.82C256.479 196.744 258.989 195.162 261.768 194.202C264.548 193.242 267.519 192.93 270.444 193.292C272.989 193.62 275.51 194.104 277.993 194.743C282.116 195.756 285.763 198.107 288.334 201.409C290.906 204.712 292.249 208.769 292.142 212.915C291.781 226.398 294.588 243.221 295.811 249.828C295.895 250.282 295.881 250.748 295.772 251.196C295.663 251.645 295.46 252.067 295.176 252.436C294.898 252.8 294.545 253.105 294.139 253.328C293.733 253.552 293.283 253.691 292.819 253.735C279.259 255.085 264.636 261.535 257.126 265.259C256.643 265.502 256.108 265.63 255.565 265.631C254.851 265.629 254.156 265.406 253.581 264.994Z" fill="#14B5E5"/>
<path d="M290.185 229.856C289.766 229.695 289.383 229.455 289.06 229.15C288.737 228.844 288.479 228.479 288.301 228.075L280.739 211.036C280.281 210.007 280.035 208.899 280.016 207.777C279.998 206.655 280.206 205.54 280.629 204.497C281.052 203.453 281.681 202.501 282.482 201.695C283.282 200.889 284.238 200.245 285.294 199.799C286.35 199.353 287.485 199.115 288.636 199.097C289.786 199.08 290.929 199.284 291.998 199.697C293.068 200.111 294.043 200.725 294.869 201.507C295.695 202.288 296.355 203.221 296.811 204.251L304.374 221.29C304.733 222.104 304.748 223.023 304.413 223.847C304.079 224.671 303.423 225.332 302.59 225.685L292.807 229.815C292.394 229.991 291.95 230.085 291.5 230.092C291.05 230.099 290.603 230.019 290.185 229.856H290.185Z" fill="#14B5E5"/>
<path d="M307.049 219.969C306.797 220.298 306.572 220.646 306.376 221.01L268.82 224.869L263.414 217.64L251.162 224.171L261.78 241.715L307.839 230.261C309.001 231.366 310.48 232.099 312.08 232.364C313.68 232.629 315.325 232.413 316.795 231.744C318.266 231.075 319.493 229.985 320.314 228.619C321.134 227.253 321.508 225.676 321.387 224.098C321.266 222.519 320.656 221.014 319.636 219.782C318.617 218.551 317.237 217.651 315.68 217.203C314.124 216.755 312.464 216.779 310.923 217.273C309.381 217.768 308.03 218.708 307.049 219.969V219.969Z" fill="#A0616A"/>
<path d="M254.396 230.599C253.977 230.438 253.595 230.198 253.272 229.892C252.948 229.587 252.69 229.222 252.513 228.818L244.95 211.779C244.492 210.749 244.247 209.642 244.228 208.52C244.209 207.398 244.417 206.283 244.84 205.239C245.263 204.196 245.893 203.244 246.693 202.438C247.494 201.632 248.449 200.987 249.505 200.542C250.561 200.096 251.697 199.857 252.847 199.84C253.998 199.822 255.14 200.026 256.21 200.44C257.28 200.853 258.255 201.468 259.081 202.25C259.907 203.031 260.567 203.963 261.023 204.994L268.585 222.033C268.945 222.846 268.959 223.766 268.625 224.59C268.291 225.414 267.635 226.074 266.802 226.427L257.019 230.558C256.606 230.734 256.162 230.828 255.712 230.835C255.262 230.842 254.814 230.761 254.396 230.599H254.396Z" fill="#14B5E5"/>
<path d="M269.053 187.495C279.382 187.495 287.755 179.328 287.755 169.254C287.755 159.179 279.382 151.012 269.053 151.012C258.724 151.012 250.35 159.179 250.35 169.254C250.35 179.328 258.724 187.495 269.053 187.495Z" fill="#A0616A"/>
<path d="M255.681 181.773C255.601 181.544 255.575 181.3 255.606 181.06C255.638 180.82 255.725 180.59 255.861 180.388C255.998 180.186 256.18 180.017 256.394 179.894C256.607 179.772 256.847 179.698 257.094 179.679C257.601 179.706 258.097 179.833 258.552 180.052C259.007 180.271 259.411 180.577 259.741 180.953C260.418 181.714 261.206 182.374 262.08 182.912C262.985 183.357 264.212 183.293 264.727 182.445C265.212 181.649 264.88 180.582 264.587 179.657C263.841 177.304 263.423 174.863 263.346 172.401C263.261 169.653 263.659 166.785 265.219 164.642C267.232 161.875 270.832 160.825 274.238 160.901C277.645 160.977 280.997 162.003 284.371 162.651C285.536 162.875 286.906 162.99 287.685 162.109C288.513 161.173 288.209 159.657 287.857 158.393C286.942 155.112 285.972 151.72 283.847 149.07C281.55 146.317 278.269 144.515 274.664 144.027C271.203 143.609 267.689 143.998 264.412 145.162C259.074 146.804 254.376 149.996 250.948 154.311C247.413 158.901 245.886 164.669 246.7 170.354C247.495 175.305 250.185 179.778 254.228 182.872L255.681 181.773Z" fill="#2F2E41"/>
<path d="M184.272 225.688C185.213 215.806 187.811 206.142 191.963 197.081C193.12 194.56 194.394 192.094 195.784 189.684C195.854 189.557 195.871 189.41 195.831 189.272C195.791 189.134 195.698 189.017 195.571 188.944C195.445 188.872 195.294 188.851 195.151 188.885C195.009 188.919 194.885 189.005 194.807 189.126C189.751 197.906 186.209 207.436 184.323 217.336C183.798 220.1 183.404 222.884 183.14 225.688C183.073 226.395 184.205 226.391 184.272 225.688Z" fill="#3F3D56"/>
<path d="M198.526 191.454C202.485 191.454 205.694 188.324 205.694 184.462C205.694 180.6 202.485 177.47 198.526 177.47C194.566 177.47 191.357 180.6 191.357 184.462C191.357 188.324 194.566 191.454 198.526 191.454Z" fill="white"/>
<path d="M185.005 225.874C185.615 219.463 187.301 213.193 189.995 207.315C190.746 205.679 191.572 204.08 192.474 202.516C192.519 202.434 192.53 202.338 192.504 202.249C192.478 202.159 192.418 202.083 192.336 202.036C192.254 201.989 192.156 201.975 192.063 201.998C191.971 202.02 191.891 202.076 191.84 202.154C188.56 207.85 186.262 214.033 185.038 220.455C184.698 222.249 184.442 224.055 184.271 225.874C184.227 226.332 184.962 226.329 185.005 225.874Z" fill="#3F3D56"/>
<path d="M194.252 203.665C196.821 203.665 198.903 201.634 198.903 199.128C198.903 196.623 196.821 194.592 194.252 194.592C191.684 194.592 189.601 196.623 189.601 199.128C189.601 201.634 191.684 203.665 194.252 203.665Z" fill="white"/>
<path d="M184.078 225.445C180.517 220.024 177.892 214.07 176.31 207.819C175.87 206.079 175.513 204.322 175.238 202.548C175.222 202.456 175.17 202.374 175.093 202.319C175.017 202.264 174.921 202.24 174.827 202.253C174.732 202.265 174.646 202.313 174.587 202.385C174.528 202.458 174.5 202.551 174.51 202.643C175.516 209.102 177.603 215.355 180.688 221.153C181.55 222.771 182.488 224.349 183.499 225.886C183.754 226.274 184.332 225.831 184.078 225.445Z" fill="#3F3D56"/>
<path d="M174.504 203.346C177.073 203.346 179.155 201.315 179.155 198.81C179.155 196.305 177.073 194.274 174.504 194.274C171.936 194.274 169.853 196.305 169.853 198.81C169.853 201.315 171.936 203.346 174.504 203.346Z" fill="white"/>
<path d="M169.801 229.459V220.546C169.802 219.66 170.164 218.811 170.806 218.184C171.448 217.558 172.319 217.205 173.228 217.204H194.549C195.457 217.205 196.328 217.558 196.971 218.184C197.613 218.811 197.975 219.66 197.976 220.546V229.459C197.975 230.345 197.613 231.194 196.971 231.821C196.328 232.447 195.457 232.8 194.549 232.801H173.228C172.319 232.8 171.448 232.447 170.806 231.821C170.164 231.194 169.802 230.345 169.801 229.459Z" fill="#CCCCCC"/>
<path d="M360.932 226.881L300.777 226.881C299.305 226.881 298.112 228.044 298.112 229.48C298.112 230.915 299.305 232.079 300.777 232.079L360.932 232.079C362.404 232.079 363.597 230.915 363.597 229.48C363.597 228.044 362.404 226.881 360.932 226.881Z" fill="#CCCCCC"/>
<path d="M401.289 232.08L333.52 232.08C332.208 232.078 330.949 231.569 330.022 230.664C329.094 229.759 328.572 228.532 328.57 227.252V190.86C328.572 189.58 329.094 188.353 330.022 187.448C330.949 186.543 332.208 186.034 333.52 186.032L401.289 186.032C402.601 186.034 403.859 186.543 404.787 187.448C405.715 188.353 406.237 189.58 406.239 190.86V227.252C406.237 228.532 405.715 229.759 404.787 230.664C403.859 231.569 402.601 232.078 401.289 232.08Z" fill="#CCCCCC"/>
<path d="M367.405 213.512C369.928 213.512 371.973 211.517 371.973 209.056C371.973 206.595 369.928 204.6 367.405 204.6C364.881 204.6 362.836 206.595 362.836 209.056C362.836 211.517 364.881 213.512 367.405 213.512Z" fill="white"/>
<path d="M573.758 281.098C573.758 275.355 551.599 270.7 524.264 270.7C496.929 270.7 474.769 275.355 474.769 281.098C474.769 284.778 483.88 288.009 497.613 289.857V346.826C497.613 348.106 498.135 349.334 499.063 350.24C499.991 351.145 501.25 351.654 502.563 351.654C503.875 351.654 505.134 351.145 506.062 350.24C506.991 349.334 507.512 348.106 507.512 346.826V290.883C512.745 291.279 518.383 291.495 524.264 291.495C530.145 291.495 535.783 291.279 541.016 290.883V346.826C541.016 348.106 541.537 349.334 542.466 350.24C543.394 351.145 544.653 351.654 545.965 351.654C547.278 351.654 548.537 351.145 549.465 350.24C550.393 349.334 550.915 348.106 550.915 346.826V289.857C564.648 288.009 573.758 284.778 573.758 281.098Z" fill="#CCCCCC"/>
<path d="M529.737 185.926C541.512 185.926 551.058 176.616 551.058 165.131C551.058 153.646 541.512 144.335 529.737 144.335C517.962 144.335 508.416 153.646 508.416 165.131C508.416 176.616 517.962 185.926 529.737 185.926Z" fill="#2F2E41"/>
<path d="M476.679 343.056H467.343L462.902 307.935H476.68L476.679 343.056Z" fill="#FFB8B8"/>
<path d="M460.675 340.454H478.679V351.51H449.339C449.339 350.059 449.632 348.621 450.202 347.279C450.772 345.938 451.607 344.719 452.659 343.692C453.712 342.666 454.962 341.851 456.337 341.296C457.712 340.74 459.186 340.454 460.675 340.454Z" fill="#2F2E41"/>
<path d="M462.106 337.975L453.199 335.248L459.742 300.442L472.888 304.465L462.106 337.975Z" fill="#FFB8B8"/>
<path d="M447.636 330.818L464.814 336.076L461.42 346.626L433.426 338.057C433.872 336.672 434.593 335.386 435.548 334.272C436.503 333.159 437.674 332.239 438.994 331.567C440.313 330.895 441.756 330.483 443.238 330.355C444.721 330.226 446.215 330.384 447.636 330.818Z" fill="#2F2E41"/>
<path d="M465.143 323.961C464.734 323.961 464.329 323.889 463.946 323.749L457.078 321.237C456.307 320.953 455.667 320.407 455.273 319.701C454.88 318.994 454.76 318.173 454.935 317.387C456.665 309.804 462.557 283.988 465.784 270.141C469.611 253.716 525.439 250.664 527.813 250.542L528.008 250.532L534.288 258.229C536.558 265.343 535.838 270.893 532.151 274.723C521.389 285.898 489.26 278.964 485.429 278.086L468.351 321.809C468.102 322.443 467.663 322.987 467.09 323.371C466.517 323.756 465.838 323.961 465.143 323.961Z" fill="#2F2E41"/>
<path d="M475.042 329.16C474.633 329.16 474.228 329.088 473.845 328.948L466.977 326.436C466.206 326.152 465.566 325.606 465.172 324.9C464.779 324.193 464.659 323.372 464.834 322.586C466.563 315.003 472.456 289.187 475.683 275.34C479.51 258.915 535.337 255.863 537.712 255.741L537.907 255.731L544.187 263.428C546.457 270.542 545.737 276.092 542.049 279.922C531.288 291.096 499.159 284.163 495.327 283.285L478.25 327.008C478.001 327.641 477.561 328.186 476.989 328.57C476.416 328.955 475.737 329.16 475.042 329.16Z" fill="#2F2E41"/>
<path d="M455.172 222.197C455.424 222.526 455.65 222.874 455.846 223.238L493.401 227.097L498.807 219.868L511.059 226.4L500.441 243.943L454.383 232.489C453.221 233.594 451.741 234.327 450.141 234.592C448.541 234.857 446.897 234.641 445.426 233.972C443.955 233.303 442.728 232.213 441.908 230.847C441.087 229.481 440.713 227.904 440.834 226.326C440.955 224.747 441.566 223.242 442.585 222.01C443.605 220.779 444.984 219.879 446.541 219.431C448.097 218.983 449.757 219.007 451.299 219.501C452.84 219.996 454.191 220.936 455.172 222.197Z" fill="#FFB8B8"/>
<path d="M542.445 266.374C541.902 266.372 541.367 266.245 540.885 266.002C533.375 262.278 518.751 255.828 505.191 254.478C504.727 254.434 504.278 254.295 503.872 254.071C503.466 253.847 503.112 253.543 502.834 253.178C502.55 252.809 502.347 252.388 502.238 251.939C502.129 251.49 502.116 251.025 502.199 250.571C503.423 243.964 506.23 227.141 505.868 213.658C505.762 209.512 507.105 205.455 509.676 202.152C512.248 198.849 515.895 196.499 520.018 195.486C522.5 194.847 525.021 194.362 527.566 194.035C530.491 193.673 533.463 193.985 536.242 194.945C539.021 195.905 541.531 197.487 543.571 199.563C545.611 201.64 547.124 204.153 547.989 206.903C548.854 209.652 549.047 212.561 548.552 215.396C546.133 229.368 543.696 248.884 545.814 262.507C545.912 263.117 545.834 263.742 545.589 264.312C545.345 264.882 544.943 265.375 544.43 265.737C543.854 266.149 543.159 266.372 542.445 266.374Z" fill="#14B5E5"/>
<path d="M506.563 230.835C506.095 230.834 505.632 230.74 505.203 230.558L495.42 226.427C494.587 226.074 493.931 225.414 493.597 224.59C493.262 223.766 493.277 222.846 493.636 222.033L501.199 204.994C501.655 203.963 502.315 203.031 503.141 202.25C503.967 201.468 504.942 200.853 506.012 200.44C507.081 200.026 508.224 199.822 509.375 199.84C510.525 199.857 511.661 200.096 512.716 200.542C513.772 200.987 514.728 201.632 515.528 202.438C516.329 203.244 516.958 204.196 517.381 205.239C517.804 206.283 518.013 207.398 517.994 208.52C517.975 209.642 517.729 210.749 517.271 211.779L509.709 228.818C509.443 229.416 509.004 229.926 508.445 230.284C507.886 230.643 507.232 230.834 506.563 230.835Z" fill="#14B5E5"/>
<path d="M528.958 188.238C539.287 188.238 547.66 180.071 547.66 169.997C547.66 159.922 539.287 151.755 528.958 151.755C518.629 151.755 510.255 159.922 510.255 169.997C510.255 180.071 518.629 188.238 528.958 188.238Z" fill="#FFB8B8"/>
<path d="M509.919 161.034C518.777 166.309 528.765 169.518 539.103 170.413L536.027 166.818C538.266 167.626 540.623 168.083 543.01 168.171C545.393 168.135 547.891 167.24 549.243 165.325C549.847 164.373 550.205 163.293 550.288 162.177C550.371 161.061 550.176 159.942 549.72 158.916C548.782 156.868 547.323 155.089 545.481 153.747C542.216 151.227 538.363 149.535 534.265 148.821C530.167 148.107 525.951 148.392 521.994 149.652C519.279 150.444 516.848 151.965 514.979 154.041C513.206 156.175 509.793 158.075 510.7 160.675L509.919 161.034Z" fill="#2F2E41"/>
<path d="M445.169 208.762L488.233 209.754L494.471 254.654L454.702 255.525L445.169 208.762Z" fill="#E6E6E6"/>
<path d="M490.96 220.712C491.213 221.041 491.438 221.389 491.634 221.753L529.189 225.612L534.595 218.383L546.848 224.914L536.229 242.458L490.171 231.003C489.009 232.108 487.53 232.842 485.93 233.107C484.33 233.372 482.685 233.156 481.214 232.486C479.743 231.817 478.516 230.728 477.696 229.362C476.876 227.996 476.501 226.419 476.622 224.84C476.743 223.262 477.354 221.757 478.374 220.525C479.393 219.293 480.773 218.394 482.329 217.946C483.886 217.497 485.545 217.522 487.087 218.016C488.629 218.51 489.98 219.45 490.96 220.712V220.712Z" fill="#FFB8B8"/>
<path d="M542.352 231.578C541.884 231.577 541.421 231.483 540.991 231.301L531.208 227.17C530.375 226.817 529.719 226.156 529.385 225.332C529.051 224.509 529.065 223.589 529.425 222.776L536.987 205.736C537.443 204.706 538.103 203.774 538.929 202.992C539.755 202.211 540.73 201.596 541.8 201.182C542.87 200.769 544.012 200.565 545.163 200.583C546.313 200.6 547.449 200.838 548.505 201.284C549.561 201.73 550.516 202.374 551.316 203.18C552.117 203.987 552.747 204.939 553.17 205.982C553.593 207.026 553.801 208.14 553.782 209.262C553.763 210.385 553.518 211.492 553.06 212.521L545.497 229.561C545.231 230.159 544.792 230.669 544.233 231.027C543.674 231.385 543.02 231.577 542.352 231.578Z" fill="#14B5E5"/>
<path d="M453.829 231.337L150.771 231.337C149.458 231.337 148.199 231.846 147.271 232.751C146.343 233.656 145.821 234.884 145.821 236.164C145.821 237.445 146.343 238.673 147.271 239.578C148.199 240.483 149.458 240.992 150.771 240.992H159.528L159.528 346.084C159.528 347.364 160.049 348.592 160.977 349.497C161.905 350.402 163.164 350.911 164.477 350.911C165.79 350.911 167.049 350.402 167.977 349.497C168.905 348.592 169.427 347.364 169.427 346.084L169.427 250.268L224.914 348.362C225.572 349.468 226.653 350.275 227.92 350.604C229.186 350.934 230.535 350.76 231.671 350.121C232.806 349.481 233.635 348.429 233.975 347.194C234.316 345.959 234.14 344.643 233.487 343.535L175.483 240.992L440.504 240.992V241.054L382.535 343.535C381.879 344.643 381.701 345.961 382.041 347.198C382.381 348.434 383.21 349.489 384.347 350.129C385.484 350.769 386.835 350.943 388.102 350.611C389.37 350.28 390.451 349.471 391.108 348.362L440.504 261.037V346.084C440.504 347.364 441.026 348.592 441.954 349.497C442.882 350.402 444.141 350.911 445.453 350.911C446.766 350.911 448.025 350.402 448.953 349.497C449.881 348.592 450.403 347.364 450.403 346.084V243.537L451.843 240.992H453.829C455.142 240.992 456.401 240.483 457.329 239.578C458.257 238.673 458.779 237.445 458.779 236.164C458.779 234.884 458.257 233.656 457.329 232.751C456.401 231.846 455.142 231.337 453.829 231.337Z" fill="#2F2E41"/>
<path d="M641.082 352L78.9054 352C78.6654 351.999 78.4355 351.906 78.266 351.74C78.0966 351.574 78.0014 351.35 78.0014 351.116C78.0014 350.882 78.0966 350.657 78.266 350.491C78.4355 350.326 78.6654 350.232 78.9054 350.231L641.082 350.231C641.323 350.231 641.553 350.325 641.723 350.49C641.893 350.656 641.989 350.881 641.989 351.116C641.989 351.35 641.893 351.575 641.723 351.741C641.553 351.907 641.323 352 641.082 352Z" fill="#3F3D56"/>
<path d="M633.525 12.0444H354.458V129.232H633.525V12.0444Z" fill="white"/>
<path d="M619.826 105.498H481.458C481.343 105.498 481.233 105.452 481.151 105.371C481.07 105.29 481.024 105.18 481.024 105.065V38.7437C481.024 38.6288 481.07 38.5187 481.151 38.4375C481.233 38.3563 481.343 38.3107 481.458 38.3107C481.572 38.3107 481.683 38.3563 481.764 38.4375C481.845 38.5187 481.891 38.6288 481.891 38.7437V104.632H619.826C619.941 104.632 620.051 104.678 620.133 104.759C620.214 104.84 620.259 104.95 620.259 105.065C620.259 105.18 620.214 105.29 620.133 105.371C620.051 105.453 619.941 105.498 619.826 105.498V105.498Z" fill="#3F3D56"/>
<path d="M511.021 100.735H498.436C498.095 100.734 497.768 100.599 497.527 100.358C497.286 100.117 497.151 99.7899 497.15 99.4491V82.1001C497.151 81.7593 497.286 81.4326 497.527 81.1916C497.768 80.9506 498.095 80.8151 498.436 80.8147H511.021C511.362 80.8151 511.689 80.9506 511.93 81.1916C512.171 81.4326 512.306 81.7593 512.307 82.1001V99.4491C512.306 99.7899 512.171 100.117 511.93 100.358C511.689 100.599 511.362 100.734 511.021 100.735Z" fill="#6C63FF"/>
<path d="M533.972 100.735H521.386C521.046 100.734 520.719 100.599 520.478 100.358C520.237 100.117 520.101 99.7901 520.101 99.4493V65.6448C520.101 65.304 520.237 64.9772 520.478 64.7363C520.719 64.4953 521.046 64.3598 521.386 64.3594H533.972C534.313 64.3598 534.639 64.4953 534.88 64.7363C535.121 64.9772 535.257 65.304 535.257 65.6448V99.4493C535.257 99.7901 535.121 100.117 534.88 100.358C534.639 100.599 534.313 100.734 533.972 100.735Z" fill="#6C63FF"/>
<path d="M556.861 284.735H544.276C543.935 284.734 543.609 284.599 543.368 284.358C543.127 284.117 542.991 283.79 542.991 283.449V266.1C542.991 265.759 543.127 265.433 543.368 265.192C543.609 264.951 543.935 264.815 544.276 264.815H556.861C557.202 264.815 557.529 264.951 557.77 265.192C558.011 265.433 558.147 265.759 558.147 266.1V283.449C558.147 283.79 558.011 284.117 557.77 284.358C557.529 284.599 557.202 284.734 556.861 284.735Z" fill="#6C63FF"/>
<path d="M579.873 100.735H567.288C566.955 100.742 566.632 100.617 566.392 100.387C566.151 100.157 566.011 99.8406 566.002 99.5076V59.091C566.011 58.758 566.151 58.4418 566.392 58.2118C566.632 57.9818 566.955 57.8566 567.288 57.8638H579.873C580.206 57.8566 580.529 57.9818 580.77 58.2118C581.01 58.4418 581.15 58.758 581.159 59.091V99.5076C581.15 99.8406 581.01 100.157 580.77 100.387C580.529 100.617 580.206 100.742 579.873 100.735Z" fill="#6C63FF"/>
<path d="M602.824 100.735H590.238C589.898 100.734 589.571 100.599 589.33 100.358C589.089 100.117 588.953 99.79 588.953 99.4492V47.457C588.953 47.1162 589.089 46.7895 589.33 46.5485C589.571 46.3076 589.898 46.172 590.238 46.1716H602.824C603.165 46.172 603.491 46.3076 603.732 46.5485C603.973 46.7895 604.109 47.1162 604.109 47.457V99.4492C604.109 99.79 603.973 100.117 603.732 100.358C603.491 100.599 603.165 100.734 602.824 100.735Z" fill="#6C63FF"/>
<path d="M504.728 75.6183C506.163 75.6183 507.327 74.4551 507.327 73.0201C507.327 71.5851 506.163 70.4219 504.728 70.4219C503.293 70.4219 502.13 71.5851 502.13 73.0201C502.13 74.4551 503.293 75.6183 504.728 75.6183Z" fill="#3F3D56"/>
<path d="M527.679 58.7298C529.114 58.7298 530.277 57.5665 530.277 56.1316C530.277 54.6966 529.114 53.5333 527.679 53.5333C526.244 53.5333 525.081 54.6966 525.081 56.1316C525.081 57.5665 526.244 58.7298 527.679 58.7298Z" fill="#3F3D56"/>
<path d="M550.63 75.6183C552.065 75.6183 553.228 74.4551 553.228 73.0201C553.228 71.5851 552.065 70.4219 550.63 70.4219C549.195 70.4219 548.031 71.5851 548.031 73.0201C548.031 74.4551 549.195 75.6183 550.63 75.6183Z" fill="#3F3D56"/>
<path d="M573.58 50.5021C575.015 50.5021 576.179 49.3389 576.179 47.9039C576.179 46.4689 575.015 45.3057 573.58 45.3057C572.145 45.3057 570.982 46.4689 570.982 47.9039C570.982 49.3389 572.145 50.5021 573.58 50.5021Z" fill="#3F3D56"/>
<path d="M596.531 40.9752C597.966 40.9752 599.129 39.8119 599.129 38.3769C599.129 36.942 597.966 35.7787 596.531 35.7787C595.096 35.7787 593.933 36.942 593.933 38.3769C593.933 39.8119 595.096 40.9752 596.531 40.9752Z" fill="#3F3D56"/>
<path d="M550.684 73.6022L527.679 56.3705L504.988 73.3668L504.469 72.6735L527.679 55.2882L550.575 72.4381L573.327 47.5394L573.419 47.5021L596.369 38.2546L596.693 39.0582L573.834 48.2683L550.684 73.6022Z" fill="#3F3D56"/>
<path d="M425.308 26.368H386.004V29.3222H425.308V26.368Z" fill="#E6E6E6"/>
<path d="M446.697 35.0404H386.004V37.9946H446.697V35.0404Z" fill="#6C63FF"/>
<path d="M436.099 43.2998H386.635V46.254H436.099V43.2998Z" fill="#E6E6E6"/>
<path d="M414.881 52.3622H386.004V55.3163H414.881V52.3622Z" fill="#E6E6E6"/>
<path d="M429.586 61.2142H386.004V64.1684H429.586V61.2142Z" fill="#6C63FF"/>
<path d="M372.903 25.4387H368.09V30.2514H372.903V25.4387Z" fill="#E6E6E6"/>
<path d="M372.903 34.1112H368.09V38.9239H372.903V34.1112Z" fill="#6C63FF"/>
<path d="M372.903 42.3705H368.09V47.1832H372.903V42.3705Z" fill="#E6E6E6"/>
<path d="M372.903 51.433H368.09V56.2457H372.903V51.433Z" fill="#E6E6E6"/>
<path d="M372.903 60.285H368.09V65.0978H372.903V60.285Z" fill="#6C63FF"/>
<path d="M425.308 70.1216H386.004V73.0757H425.308V70.1216Z" fill="#E6E6E6"/>
<path d="M446.697 78.7941H386.004V81.7482H446.697V78.7941Z" fill="#6C63FF"/>
<path d="M436.099 87.0535H386.635V90.0076H436.099V87.0535Z" fill="#E6E6E6"/>
<path d="M414.881 96.1158H386.004V99.07H414.881V96.1158Z" fill="#E6E6E6"/>
<path d="M429.586 104.968H386.004V107.922H429.586V104.968Z" fill="#E6E6E6"/>
<path d="M372.903 69.1924H368.09V74.0051H372.903V69.1924Z" fill="#E6E6E6"/>
<path d="M372.903 77.8647H368.09V82.6775H372.903V77.8647Z" fill="#6C63FF"/>
<path d="M372.903 86.1241H368.09V90.9369H372.903V86.1241Z" fill="#E6E6E6"/>
<path d="M372.903 95.1865H368.09V99.9992H372.903V95.1865Z" fill="#E6E6E6"/>
<path d="M372.903 104.039H368.09V108.851H372.903V104.039Z" fill="#E6E6E6"/>
<path d="M163.476 129.615H128.198C127.664 129.616 127.147 129.801 126.734 130.138C126.321 130.476 126.036 130.946 125.928 131.468L116.383 178.562C116.368 178.69 116.368 178.819 116.383 178.948L115.475 179.046L114.666 179.129C114.617 179.12 114.569 179.107 114.522 179.091C114.398 179.004 114.293 178.891 114.215 178.761C114.137 178.631 114.087 178.486 114.068 178.335C113.605 176.658 113.269 174.949 113.062 173.222C112.945 171.327 112.945 169.428 113.062 167.533C113.108 166.021 113.062 164.546 113.062 163.056C113.313 161.379 113.462 159.689 113.508 157.995C113.598 156.189 113.42 154.379 112.979 152.625C112.7 151.673 112.346 150.745 111.92 149.849C111.587 147.307 111.224 144.758 110.854 142.224C110.574 140.341 110.294 138.442 109.923 136.581C110.006 136.271 110.074 135.961 110.127 135.643C110.332 134.104 110.131 132.537 109.546 131.098C108.962 129.659 108.012 128.397 106.792 127.436C106.035 126.821 105.198 126.312 104.303 125.924C103.561 125.619 102.804 125.354 102.034 125.129L89.8637 121.347C88.7367 119.706 87.5945 118.049 86.5809 116.355C85.5931 114.829 84.7305 113.225 84.0016 111.56C87.9525 108.74 90.6748 104.516 91.6101 99.7539C92.5454 94.9914 91.6229 90.0515 89.0316 85.9476C88.8274 85.6299 88.6156 85.3123 88.3963 85.0097C88.4848 83.5464 88.3132 82.0789 87.8895 80.6755C87.7956 80.1548 87.6407 79.6471 87.4281 79.1627C87.0995 78.5065 86.6793 77.9004 86.1801 77.3624C86.0817 77.249 85.9683 77.1431 85.8624 77.0296C84.8658 75.9348 83.7495 74.9554 82.5342 74.1099C78.4951 71.1826 73.0793 67.6275 68.125 66.4324C65.6767 65.8752 63.1359 65.8623 60.6821 66.3946L60.3039 66.2887L59.5853 66.1449C59.7669 66.2206 59.9408 66.3189 60.1224 66.4021C57.5238 65.8211 54.824 65.8704 52.2483 66.5458C49.0412 67.4989 47.9218 70.0404 46.5678 72.8164C44.3698 77.2837 41.0362 81.0947 36.9011 83.8675C34.2387 85.6526 31.0845 87.1957 29.8062 90.123C28.6111 92.8536 29.4204 95.9776 29.7003 98.9502C30.0401 102.983 29.3678 107.038 27.7445 110.745C26.1212 114.453 23.5982 117.697 20.4043 120.183C16.766 122.981 11.91 125.326 11.1309 129.834C10.5787 133.049 12.3941 136.12 13.7631 139.085C16.6601 145.333 17.651 152.965 14.2472 158.963C13.2866 160.665 11.9781 162.224 11.4637 164.107C10.556 167.458 12.4848 171.104 15.3743 173.055C18.2637 175.007 21.8868 175.529 25.3813 175.514C25.9789 175.514 26.584 175.514 27.1966 175.43C26.8941 178.358 26.5159 181.285 26.0394 184.189C25.3359 188.478 24.4358 192.782 24.7081 197.116C24.8518 199.461 25.3889 201.889 26.9092 203.697C29.2994 206.549 33.4596 207.131 37.1886 206.988C43.0884 206.761 48.89 205.225 54.7596 204.885C54.6496 205.122 54.5928 205.38 54.5931 205.641C54.5931 206.662 55.2209 207.789 54.9335 208.803C54.8119 209.157 54.633 209.49 54.404 209.786C52.8913 212.01 51.0986 214.491 51.6205 217.131C51.8777 218.417 52.6795 219.703 52.3089 220.966C52.0746 221.556 51.7477 222.105 51.3407 222.592C49.2681 225.678 49.6993 229.74 50.2212 233.424L50.9171 233.621C50.7204 234.044 50.5238 234.475 50.3422 234.906C49.4943 236.818 49.0046 238.869 48.8975 240.958C48.9554 243.302 49.3529 245.626 50.0775 247.856C51.1062 251.638 52.1727 255.42 53.5266 259.074C54.6764 262.213 56.0303 265.261 57.3691 268.317C57.7927 269.255 58.2087 270.2 58.6247 271.146C61.2065 276.995 63.7934 282.85 66.3853 288.71C66.7109 289.382 66.9644 290.087 67.1417 290.812C67.2778 291.433 67.3081 292.06 67.4064 292.688C67.8149 295.124 69.4033 297.174 70.5681 299.36C74.4938 306.735 73.5181 315.63 72.4515 323.913C73.0346 324.495 73.6875 325.003 74.3955 325.425C74.282 326.257 74.1686 327.097 73.9946 327.899C72.9583 332.626 71.7254 337.316 71.0068 342.119C70.6452 344.454 70.4682 346.814 70.4774 349.177C70.4774 351.446 71.2867 353.753 71.2867 355.984C71.8389 358.253 72.6785 360.417 73.2685 362.663C73.5105 366.15 73.9189 369.637 74.4409 373.117C74.6123 376.273 74.7888 379.433 74.9703 382.594C75.1292 385.393 75.2578 388.336 74.0022 390.847C74.0022 390.93 73.9114 391.013 73.866 391.096C72.7689 391.022 71.6709 391.227 70.6747 391.693C69.6785 392.159 68.8169 392.87 68.1704 393.759C66.8469 395.684 66.0848 397.939 65.9693 400.272C65.809 401.256 65.9215 402.266 66.2945 403.191C66.6576 403.948 67.293 404.455 67.709 405.15C68.1169 405.959 68.3733 406.836 68.4654 407.737C69.3125 412.972 70.1672 418.221 70.6211 423.508C70.7572 425.12 70.8858 426.821 71.8313 428.138C72.7768 429.454 74.8569 430.097 76.0444 428.985C74.8454 422.927 74.2525 416.764 74.2745 410.589C74.6708 410.532 75.0732 410.532 75.4696 410.589C75.704 411.656 76.0293 412.715 76.3318 413.766C76.5341 414.538 76.7867 415.296 77.0882 416.035C76.9672 417.071 77.0882 418.63 77.0428 419.386C76.9823 422.729 76.9823 426.07 77.0428 429.408C77.0882 431.315 77.1563 433.221 77.2471 435.127C77.2385 435.338 77.28 435.548 77.3681 435.74C77.3966 435.776 77.4336 435.804 77.4758 435.823C77.5181 435.841 77.5642 435.849 77.6101 435.845C78.2455 435.845 78.8884 435.845 79.5238 435.845C79.5925 435.091 79.6203 434.334 79.607 433.576C79.607 431.836 79.607 430.102 79.607 428.372C79.607 426.89 79.607 425.407 79.607 423.924C80.0533 426.579 80.6887 429.219 81.3316 431.829L82.6931 437.411L82.8292 437.971L83.9865 442.698C84.0225 442.868 84.0784 443.033 84.1529 443.19C84.3 443.419 84.4932 443.615 84.7202 443.765C87.1138 445.505 89.922 446.587 92.8645 446.903C95.807 447.219 98.781 446.758 101.489 445.565C101.698 445.481 101.89 445.361 102.057 445.21C102.36 444.804 102.498 444.299 102.442 443.795C102.371 442.287 102.666 440.784 103.305 439.416C103.653 438.911 103.938 438.364 104.152 437.789C104.282 436.857 104.101 435.908 103.638 435.089L102.39 432.177C102.98 432.154 103.569 432.094 104.152 431.995C105.037 431.239 104.394 429.673 105.128 428.781C105.433 428.504 105.759 428.251 106.103 428.024C107.026 427.215 106.935 425.755 106.519 424.598C105.173 420.869 101.573 418.493 98.1991 416.391L97.7604 416.118C95.0071 403.259 90.1511 390.59 91.4445 377.542C91.7244 374.758 92.2841 372.005 92.738 369.221C95.0071 355.53 94.8634 341.484 97.4805 327.861C98.8318 327.785 100.147 327.396 101.323 326.726C103.539 325.35 104.621 322.687 104.916 320.108C105.211 317.529 104.855 314.927 104.916 312.324C104.984 308.595 105.876 304.934 106.769 301.296C107.813 297.053 106.013 292.552 107.102 288.324C107.516 287.023 107.844 285.696 108.085 284.353C108.312 282.454 107.934 280.45 108.607 278.649C108.91 277.825 109.432 277.091 109.779 276.282C111.292 272.863 109.628 268.718 111.149 265.284C111.639 264.487 112.004 263.62 112.23 262.712C112.282 262.005 112.192 261.295 111.965 260.624C111.58 259.051 111.209 257.462 110.959 255.866C110.847 255.317 110.799 254.756 110.816 254.195C110.89 253.6 111.024 253.015 111.217 252.447C112.366 248.469 112.51 244.271 112.639 240.118C112.707 237.917 112.767 235.58 111.837 233.598C111.56 232.998 111.204 232.439 110.778 231.934L110.891 231.873C110.309 229.506 109.848 226.752 110.695 224.46C111.05 223.485 111.663 222.547 111.549 221.511C111.436 220.474 110.725 219.763 110.438 218.84C109.946 217.328 110.695 215.694 111.133 214.136C111.89 211.473 111.716 208.644 111.542 205.876C111.55 205.28 111.415 204.691 111.149 204.159C110.952 203.833 110.657 203.584 110.468 203.251C110.279 202.847 110.185 202.405 110.194 201.959C110.203 201.513 110.315 201.075 110.521 200.679C110.941 199.898 111.283 199.077 111.542 198.228C111.583 197.965 111.583 197.697 111.542 197.434C112.102 197.192 112.601 196.829 113.138 196.542C115.407 195.331 118.092 195.513 120.649 195.445C123.205 195.377 126.049 194.87 127.577 192.835C127.728 192.58 127.935 192.363 128.182 192.2C128.264 192.158 128.35 192.128 128.44 192.109C129.37 192.238 129.952 192.23 129.824 191.988C130.247 191.799 130.444 191.338 130.694 190.952C130.757 190.851 130.828 190.755 130.905 190.664C131.854 190.099 132.845 189.608 133.871 189.197C133.687 189.174 133.502 189.174 133.318 189.197C134.895 188.686 136.549 188.455 138.205 188.516C139.786 188.516 142.509 188.736 143.741 187.51C146.011 186.065 146.684 183.168 147.735 180.702C148.085 179.903 148.476 179.123 148.908 178.365L154.785 177.79C155.278 177.741 155.743 177.535 156.112 177.203C156.481 176.871 156.734 176.431 156.835 175.945L165.654 132.383C165.72 132.055 165.714 131.716 165.636 131.39C165.558 131.065 165.411 130.76 165.204 130.496C164.997 130.233 164.735 130.018 164.437 129.866C164.138 129.714 163.81 129.628 163.476 129.615ZM52.1727 189.371C50.8665 189.936 49.4584 190.227 48.0352 190.227C46.6121 190.227 45.204 189.936 43.8978 189.371C43.5044 189.197 43.0733 188.713 43.391 188.425C43.7087 188.138 43.9659 188.38 44.223 188.259C44.7147 188.017 44.3592 187.291 44.0869 186.822C43.3305 185.46 43.8524 183.736 44.6012 182.359C45.35 180.982 46.3107 179.621 46.3409 178.055C46.295 177.552 46.295 177.045 46.3409 176.542C46.5808 175.828 46.9614 175.17 47.4604 174.606C47.5965 174.409 47.71 174.197 47.831 173.986C48.0352 174.303 48.2395 174.613 48.4513 174.924C49.132 175.967 49.8102 177.019 50.4859 178.078C51.0257 178.791 51.3675 179.633 51.4768 180.521C51.401 181.046 51.4293 181.58 51.56 182.094C51.8626 182.76 52.8005 183.312 52.4526 183.955C52.2807 184.3 52.1912 184.681 52.1912 185.067C52.1912 185.453 52.2807 185.833 52.4526 186.179C52.8081 186.792 53.3375 187.298 53.693 187.903C53.794 188.085 53.88 188.275 53.9502 188.471C53.3754 188.773 52.7778 189.106 52.1727 189.371ZM125.543 181.209C125.096 181.315 124.65 181.421 124.204 181.542C124.143 181.27 124.121 181.118 124.121 181.118L121.761 181.822C120.862 181.862 119.968 181.677 119.159 181.285L128.901 180.332C127.789 180.65 126.67 180.945 125.543 181.209Z" fill="url(#paint0_linear)"/>
<path d="M53.8516 74.7982C51.6834 79.2364 48.3895 83.0285 44.2984 85.7963C41.6586 87.5739 38.5422 89.1018 37.2791 92.014C36.0991 94.7295 36.9009 97.8459 37.1732 100.796C37.5076 104.782 36.8488 108.79 35.2556 112.459C33.6624 116.129 31.1845 119.346 28.0435 121.824C24.4507 124.615 19.6476 126.945 18.8761 131.43C18.3315 134.622 20.1317 137.686 21.4856 140.628C24.3448 146.846 25.3281 154.44 21.9621 160.401C21.0091 162.095 19.693 163.646 19.2089 165.521C18.3088 168.857 20.2149 172.48 23.074 174.417C25.9332 176.353 29.5185 176.883 32.9676 176.867C35.4713 176.867 38.1867 176.489 39.9718 174.727C41.1669 173.547 41.7569 171.905 42.3166 170.325L46.6659 158.003C47.4223 155.779 48.2846 153.464 49.9335 151.8C53.4356 148.23 59.1388 148.608 64.1385 148.669C71.4975 148.757 78.8186 147.604 85.794 145.257C89.8785 143.873 94.311 141.528 95.264 137.33C96.2171 133.132 93.3882 129.312 90.9148 125.908C89.0641 123.387 87.3144 120.778 85.6654 118.08C84.0543 115.478 82.5188 112.732 82.0726 109.706C81.3162 104.676 83.6988 99.7898 85.5217 95.0472C87.3446 90.3045 88.6229 84.692 85.968 80.3578C84.8212 78.67 83.3599 77.219 81.6641 76.0841C77.6704 73.1719 72.3151 69.6395 67.4213 68.452C64.7975 67.8361 62.0629 67.8725 59.4565 68.5579C56.2872 69.5412 55.1753 72.0676 53.8516 74.7982Z" fill="#3F3D56"/>
<path d="M107.556 133.594C108.537 136.932 109.233 140.348 109.636 143.805C110.846 152.125 112.064 160.552 111.837 168.986C111.727 170.868 111.727 172.754 111.837 174.636C112.047 176.355 112.384 178.057 112.843 179.727C112.859 179.877 112.908 180.022 112.984 180.153C113.061 180.283 113.165 180.396 113.289 180.483C113.577 180.627 113.917 180.483 114.235 180.445C115.316 180.317 116.118 181.36 116.95 182.064C117.768 182.725 118.768 183.121 119.816 183.199C120.865 183.278 121.913 183.035 122.82 182.503C122.54 183.742 122.629 185.036 123.073 186.227C123.518 187.417 124.3 188.452 125.324 189.204C126.369 189.934 127.56 190.43 128.814 190.658C130.068 190.887 131.357 190.842 132.593 190.528C131.337 190.331 130.134 191.209 129.446 192.275C129.204 192.654 129.007 193.115 128.591 193.304C128.175 193.493 127.457 193.251 126.965 193.508C126.722 193.674 126.517 193.891 126.367 194.144C124.855 196.171 122.048 196.67 119.522 196.738C116.996 196.806 114.318 196.632 112.094 197.835C111.542 198.13 111.027 198.508 110.453 198.75C108.698 199.507 106.603 198.75 105.241 197.457C103.942 196.062 103.021 194.36 102.563 192.51C100.294 185.188 100.748 177.344 101.209 169.697C101.943 157.541 103.486 145.091 107.556 133.594Z" fill="#454B69"/>
<path opacity="0.1" d="M107.556 133.594C108.537 136.932 109.233 140.348 109.636 143.805C110.846 152.125 112.064 160.552 111.837 168.986C111.727 170.868 111.727 172.754 111.837 174.636C112.047 176.355 112.384 178.057 112.843 179.727C112.859 179.877 112.908 180.022 112.984 180.153C113.061 180.283 113.165 180.396 113.289 180.483C113.577 180.627 113.917 180.483 114.235 180.445C115.316 180.317 116.118 181.36 116.95 182.064C117.768 182.725 118.768 183.121 119.816 183.199C120.865 183.278 121.913 183.035 122.82 182.503C122.54 183.742 122.629 185.036 123.073 186.227C123.518 187.417 124.3 188.452 125.324 189.204C126.369 189.934 127.56 190.43 128.814 190.658C130.068 190.887 131.357 190.842 132.593 190.528C131.337 190.331 130.134 191.209 129.446 192.275C129.204 192.654 129.007 193.115 128.591 193.304C128.175 193.493 127.457 193.251 126.965 193.508C126.722 193.674 126.517 193.891 126.367 194.144C124.855 196.171 122.048 196.67 119.522 196.738C116.996 196.806 114.318 196.632 112.094 197.835C111.542 198.13 111.027 198.508 110.453 198.75C108.698 199.507 106.603 198.75 105.241 197.457C103.942 196.062 103.021 194.36 102.563 192.51C100.294 185.188 100.748 177.344 101.209 169.697C101.943 157.541 103.486 145.091 107.556 133.594Z" fill="black"/>
<path d="M70.6129 356.377C71.2483 359.017 72.2921 361.551 72.8821 364.199C73.312 366.48 73.5649 368.792 73.6385 371.112L74.289 382.852C74.4479 385.635 74.5764 388.562 73.3359 391.059C72.4812 392.791 70.9986 394.243 70.5751 396.127C69.9094 399.077 72.0198 401.868 74.0016 404.16L83.7289 415.43C86.7546 418.962 90.1054 422.676 94.6212 423.879C95.2921 424.108 96.0155 424.134 96.7013 423.955C97.9569 423.539 98.5696 422.018 98.3881 420.702C98.1033 419.402 97.5091 418.191 96.6559 417.17C94.1068 413.592 91.3611 410.075 89.7272 406.005C87.6244 400.831 87.4051 395.105 87.5337 389.523C88.048 366.755 93.774 344.252 93.1235 321.447C88.1539 321.069 82.9877 320.244 77.9954 320.289C73.5553 320.335 74.0848 324.828 73.3132 328.421C72.2845 333.126 71.044 337.793 70.3557 342.566C69.9968 344.89 69.8223 347.24 69.8338 349.593C69.8338 351.884 70.6129 354.176 70.6129 356.377Z" fill="#FBBEBE"/>
<path opacity="0.05" d="M70.6129 356.377C71.2483 359.017 72.2921 361.551 72.8821 364.199C73.312 366.48 73.5649 368.792 73.6385 371.112L74.289 382.852C74.4479 385.635 74.5764 388.562 73.3359 391.059C72.4812 392.791 70.9986 394.243 70.5751 396.127C69.9094 399.077 72.0198 401.868 74.0016 404.16L83.7289 415.43C86.7546 418.962 90.1054 422.676 94.6212 423.879C95.2921 424.108 96.0155 424.134 96.7013 423.955C97.9569 423.539 98.5696 422.018 98.3881 420.702C98.1033 419.402 97.5091 418.191 96.6559 417.17C94.1068 413.592 91.3611 410.075 89.7272 406.005C87.6244 400.831 87.4051 395.105 87.5337 389.523C88.048 366.755 93.774 344.252 93.1235 321.447C88.1539 321.069 82.9877 320.244 77.9954 320.289C73.5553 320.335 74.0848 324.828 73.3132 328.421C72.2845 333.126 71.044 337.793 70.3557 342.566C69.9968 344.89 69.8223 347.24 69.8338 349.593C69.8338 351.884 70.6129 354.176 70.6129 356.377Z" fill="black"/>
<path d="M73.5552 391.354C71.286 390.885 68.926 392.11 67.504 393.956C66.192 395.87 65.4377 398.112 65.3255 400.43C65.1593 401.41 65.272 402.417 65.6508 403.335C66.0063 404.054 66.6341 404.598 67.0426 405.287C67.4508 406.09 67.7073 406.962 67.799 407.858C68.6462 413.07 69.4933 418.289 69.932 423.546C70.0682 425.15 70.1968 426.844 71.1347 428.153C72.0727 429.461 74.1603 430.097 75.3025 429C74.119 422.998 73.5287 416.895 73.5401 410.778C76.1951 410.415 78.5097 412.503 80.2418 414.56C82.0151 416.645 83.6403 418.852 85.1055 421.163C86.3379 423.353 87.7658 425.426 89.3717 427.358C91.1128 429.205 93.2779 430.599 95.6793 431.42C98.0807 432.241 100.646 432.465 103.153 432.071C104.031 431.314 103.388 429.756 104.114 428.871C104.417 428.594 104.74 428.341 105.082 428.115C105.997 427.313 105.899 425.846 105.491 424.711C104.167 420.997 100.604 418.66 97.2685 416.542C91.2173 412.76 85.0904 408.978 79.0013 405.317C76.6795 403.879 74.9121 401.699 73.9864 399.129C73.767 398.471 72.8139 391.104 73.5552 391.354Z" fill="#3F3D56"/>
<path opacity="0.05" d="M73.5552 391.354C71.286 390.885 68.926 392.11 67.504 393.956C66.192 395.87 65.4377 398.112 65.3255 400.43C65.1593 401.41 65.272 402.417 65.6508 403.335C66.0063 404.054 66.6341 404.598 67.0426 405.287C67.4508 406.09 67.7073 406.962 67.799 407.858C68.6462 413.07 69.4933 418.289 69.932 423.546C70.0682 425.15 70.1968 426.844 71.1347 428.153C72.0727 429.461 74.1603 430.097 75.3025 429C74.119 422.998 73.5287 416.895 73.5401 410.778C76.1951 410.415 78.5097 412.503 80.2418 414.56C82.0151 416.645 83.6403 418.852 85.1055 421.163C86.3379 423.353 87.7658 425.426 89.3717 427.358C91.1128 429.205 93.2779 430.599 95.6793 431.42C98.0807 432.241 100.646 432.465 103.153 432.071C104.031 431.314 103.388 429.756 104.114 428.871C104.417 428.594 104.74 428.341 105.082 428.115C105.997 427.313 105.899 425.846 105.491 424.711C104.167 420.997 100.604 418.66 97.2685 416.542C91.2173 412.76 85.0904 408.978 79.0013 405.317C76.6795 403.879 74.9121 401.699 73.9864 399.129C73.767 398.471 72.8139 391.104 73.5552 391.354Z" fill="black"/>
<path d="M72.5718 349.767C71.354 364.978 74.7654 380.121 77.7986 395.075C78.0836 396.27 78.2384 397.493 78.26 398.721C78.1328 400.252 77.8799 401.77 77.5036 403.259C76.3539 409.432 77.8213 415.755 79.2811 421.86C80.2947 426.088 81.7243 430.861 85.6652 432.706C88.4412 434.015 91.7164 433.463 94.7421 432.85C95.7363 432.745 96.6817 432.365 97.4727 431.753C98.5619 430.732 98.5997 429.045 98.509 427.563C97.4651 410.771 88.9631 394.667 90.6196 377.92C90.892 375.151 91.4441 372.413 91.898 369.66C94.2428 355.424 93.9403 340.773 96.9659 326.681C97.1162 326.188 97.1162 325.661 96.9659 325.168C96.7099 324.685 96.3038 324.297 95.8086 324.064C93.0553 322.415 90.1129 320.955 86.936 320.509C84.4549 320.161 81.3386 320.433 79.2509 321.969C77.1632 323.504 76.9211 327.052 76.2782 329.586C74.4759 336.196 73.236 342.947 72.5718 349.767Z" fill="#FBBEBE"/>
<path d="M76.5431 435.187C76.5308 435.395 76.5697 435.603 76.6566 435.792C76.6847 435.83 76.7214 435.859 76.7636 435.879C76.8058 435.899 76.8521 435.908 76.8986 435.906C77.534 435.906 78.1618 435.906 78.7972 435.906C78.8728 435.15 78.8728 434.393 78.8804 433.637V428.463C78.8804 424.363 78.8804 420.248 78.6989 416.171C78.7015 416.02 78.6784 415.869 78.6308 415.725C78.5871 415.635 78.5116 415.565 78.419 415.528C77.9727 415.317 76.9062 414.658 76.528 415.415C76.1498 416.171 76.3162 418.554 76.2935 419.545C76.233 422.868 76.233 426.191 76.2935 429.514C76.3792 431.405 76.4624 433.296 76.5431 435.187Z" fill="#3F3D56"/>
<path d="M109.756 255.216C109.74 255.774 109.788 256.333 109.899 256.88C110.172 258.468 110.512 260.042 110.898 261.607C111.117 262.278 111.205 262.984 111.155 263.688C110.93 264.588 110.57 265.45 110.088 266.244C108.576 269.625 110.202 273.808 108.734 277.182C108.387 277.991 107.872 278.695 107.57 279.542C106.912 281.334 107.282 283.324 107.063 285.215C106.824 286.551 106.498 287.87 106.087 289.163C105.021 293.369 106.783 297.847 105.754 302.068C104.877 305.683 103.984 309.329 103.924 313.043C103.871 315.622 104.226 318.209 103.924 320.781C103.621 323.353 102.555 325.993 100.369 327.362C98.6442 328.443 96.5036 328.564 94.4614 328.602C90.5357 328.67 86.5873 328.557 82.6617 328.254C78.736 327.952 74.5229 327.309 71.7621 324.518C72.8134 316.28 73.7741 307.438 69.8938 300.093C68.7441 297.922 67.1708 295.88 66.7699 293.46C66.664 292.839 66.6337 292.212 66.5051 291.599C66.3259 290.876 66.0724 290.174 65.7487 289.504C63.1921 283.669 60.633 277.842 58.0714 272.023C57.6629 271.085 57.2545 270.147 56.8309 269.209C55.5072 266.184 54.176 263.158 53.0489 260.027C51.7101 256.366 50.6512 252.614 49.6376 248.862C48.9202 246.641 48.5279 244.327 48.4728 241.994C48.5829 239.929 49.0673 237.902 49.9023 236.011C50.3562 234.906 50.8857 233.825 51.4151 232.766C66.6261 229.177 82.2807 227.837 97.8802 228.787C100.375 228.833 102.849 229.243 105.225 230.005C106.835 230.574 108.285 231.521 109.453 232.766C109.991 233.345 110.433 234.006 110.762 234.725C111.677 236.722 111.616 239.021 111.556 241.215C111.42 245.337 111.284 249.535 110.149 253.476C109.958 254.041 109.826 254.624 109.756 255.216Z" fill="#3F3D56"/>
<path d="M99.0915 426.746C96.7847 428.49 94.0775 429.629 91.2173 430.059C88.6909 430.429 85.9225 430.165 83.918 428.546C81.6488 426.738 80.8394 423.667 80.1889 420.823L79.3191 417.041C79.0014 415.68 78.6912 414.318 78.4416 412.941C77.7919 409.306 77.6013 405.603 77.8743 401.921C75.8018 402.73 74.5613 405.188 74.4251 407.404C74.289 409.621 74.9773 411.792 75.6051 413.925C75.8526 414.955 76.2314 415.949 76.7321 416.882C77.1028 417.502 77.5869 418.055 77.9046 418.705C78.3008 419.668 78.5285 420.691 78.5778 421.731C79.0481 425.148 79.7277 428.533 80.6125 431.867L81.9589 437.419L82.0951 437.978L83.2372 442.683C83.2721 442.851 83.328 443.014 83.4036 443.167C83.5458 443.398 83.7369 443.594 83.9634 443.742C86.325 445.473 89.1016 446.551 92.0128 446.865C94.924 447.18 97.8667 446.721 100.544 445.535C100.752 445.449 100.943 445.329 101.111 445.179C101.403 444.774 101.535 444.276 101.482 443.78C101.416 442.277 101.712 440.781 102.344 439.416C102.686 438.912 102.966 438.368 103.176 437.797C103.301 436.871 103.123 435.929 102.669 435.112L99.8706 428.561C99.7055 427.92 99.4427 427.307 99.0915 426.746Z" fill="#3F3D56"/>
<path d="M92.5259 154.221C92.4206 155.662 92.136 157.085 91.6787 158.456C91.3386 159.452 90.741 160.339 89.9465 161.028C88.6455 159.273 86.3234 158.668 84.5609 157.375C83.1112 156.143 81.8498 154.706 80.8167 153.109C78.5475 150.083 75.9606 147.398 73.5401 144.539C73.1695 144.1 72.7837 143.669 72.4585 143.23C71.221 141.722 70.1008 140.121 69.1076 138.442C67.088 134.963 65.7038 130.961 62.663 128.329C61.0065 126.892 58.9264 125.946 57.459 124.32C58.3538 122.788 58.9373 121.094 59.176 119.335C59.5239 117.648 59.8643 115.954 60.0459 114.237C60.0988 113.783 60.1291 113.329 60.1442 112.876C60.1442 112.679 60.1442 112.49 60.1442 112.293C60.1442 110.894 59.2441 108.511 60.6737 107.709C61.9823 106.953 64.1304 106.953 65.6735 106.998H65.9534C69.5359 107.038 73.0292 108.121 76.006 110.115C76.6835 110.529 77.2743 111.071 77.7457 111.711C78.4358 112.97 78.7011 114.418 78.5021 115.841C78.5021 116.173 78.5021 116.506 78.4492 116.832V117.316C78.3962 118.934 78.5551 120.667 79.6897 121.794C80.8243 122.921 82.8363 123.064 84.4929 123.579C84.7652 123.669 85.0223 123.76 85.2871 123.866C87.1011 124.685 88.6497 125.995 89.7574 127.648C91.0027 129.549 91.8826 131.665 92.3519 133.888C92.8138 135.877 93.1048 137.902 93.2218 139.94C93.3849 144.711 93.1522 149.488 92.5259 154.221Z" fill="#FBBEBE"/>
<path opacity="0.1" d="M78.4718 116.794V117.278C76.4522 118.034 71.528 115.947 69.2513 115.947C64.7128 115.947 63.3362 116.832 60.0685 114.199C60.1366 113.556 60.182 112.906 60.1971 112.255C60.1971 110.856 59.297 108.473 60.7266 107.671C62.1562 106.87 64.433 106.915 65.976 106.96C69.5585 107 73.0518 108.083 76.0287 110.077C76.7062 110.492 77.297 111.033 77.7684 111.673C78.729 113.125 78.5777 115.039 78.4718 116.794Z" fill="black"/>
<path d="M90.9903 97.9517C90.991 100.761 90.3692 103.535 89.1695 106.075C87.9699 108.615 86.2222 110.857 84.0523 112.641C81.8824 114.424 79.3441 115.705 76.62 116.39C73.896 117.076 71.0539 117.149 68.2982 116.605C63.9794 115.749 60.0908 113.422 57.2951 110.021C54.4994 106.62 52.9694 102.354 52.9658 97.9517C52.9154 95.4221 53.3701 92.9078 54.3032 90.5561C55.2364 88.2043 56.6294 86.0623 58.4005 84.2555C60.1716 82.4487 62.2854 81.0133 64.6181 80.0334C66.9508 79.0535 69.4555 78.5488 71.9857 78.5488C74.5158 78.5488 77.0205 79.0535 79.3532 80.0334C81.6859 81.0133 83.7997 82.4487 85.5708 84.2555C87.342 86.0623 88.7349 88.2043 89.668 90.5561C90.6012 92.9078 91.0559 95.4221 91.0054 97.9517H90.9903Z" fill="#FBBEBE"/>
<path d="M58.9945 120.425C58.3975 119.924 57.666 119.611 56.8917 119.525C56.3344 119.579 55.8037 119.789 55.3607 120.132C54.9178 120.474 54.5806 120.935 54.388 121.461C53.9266 122.482 53.7829 123.609 53.382 124.661C52.838 126.074 51.8508 127.274 50.5682 128.079C49.668 128.639 48.6015 129.033 47.9888 129.895C47.0206 131.264 47.6106 133.178 48.4275 134.645C51.4532 140.114 56.9749 143.722 62.2622 147.058L68.2227 150.84C70.6164 152.426 73.0962 153.878 75.6506 155.189C79.7881 157.231 84.266 158.54 88.3808 160.628C90.2719 161.581 92.1629 162.723 94.2279 163.048C94.6686 161.64 94.9453 160.186 95.0523 158.714C96.0735 149.637 97.0795 140.356 95.0523 131.445C94.7847 129.72 94.0585 128.097 92.9495 126.748C92.1693 126.002 91.2757 125.384 90.3021 124.918C87.887 123.617 85.4022 122.451 82.8591 121.423C81.6667 120.846 80.356 120.556 79.0317 120.576C79.1465 121.57 79.444 122.534 79.9091 123.42C83.1011 130.535 86.2982 137.653 89.5003 144.773C90.2032 146.071 90.6016 147.512 90.6652 148.986C90.5971 151.082 89.1524 153.124 89.7651 155.136C84.1855 147.022 77.7853 139.504 70.6658 132.701C70.3535 132.439 70.0963 132.118 69.9094 131.756C69.7373 131.184 69.701 130.581 69.8035 129.993C69.8716 128.874 69.6371 127.376 68.6992 126.627C68.0487 126.105 67.088 125.954 66.3695 125.5C63.8658 123.912 61.4528 122.119 58.9945 120.425Z" fill="#6C63FF"/>
<path opacity="0.1" d="M109.824 234.452C105.017 236.87 99.7817 238.317 94.4161 238.711C89.0661 239.093 83.6968 239.123 78.3428 238.802L66.1497 238.34C60.613 238.121 55.1745 237.675 49.8949 236.011C50.3487 234.906 50.8782 233.825 51.4077 232.766C66.6187 229.177 82.2733 227.837 97.8728 228.787C100.367 228.833 102.842 229.243 105.217 230.005C106.827 230.574 108.277 231.521 109.446 232.766C109.567 233.341 109.703 233.908 109.824 234.452Z" fill="black"/>
<path d="M108.97 175.014C106.867 182.132 108.312 189.923 109.62 197.222C109.988 197.471 110.269 197.829 110.423 198.245C110.578 198.662 110.599 199.116 110.483 199.544C110.221 200.386 109.882 201.202 109.469 201.98C109.264 202.372 109.152 202.806 109.142 203.248C109.131 203.69 109.222 204.128 109.409 204.529C109.598 204.862 109.893 205.119 110.089 205.444C110.352 205.973 110.484 206.556 110.475 207.146C110.641 209.9 110.808 212.713 110.067 215.368C109.636 216.881 108.902 218.515 109.386 220.043C109.673 220.966 110.384 221.745 110.483 222.706C110.581 223.666 109.991 224.665 109.636 225.633C108.796 227.902 109.25 230.648 109.832 233.008C105.026 235.425 99.7901 236.872 94.4245 237.266C89.0746 237.652 83.705 237.682 78.3512 237.357L66.1581 236.896C60.576 236.684 55.0997 236.23 49.7822 234.536C49.2679 230.867 48.8368 226.828 50.8941 223.765C51.2913 223.273 51.6126 222.725 51.8472 222.138C52.2103 220.883 51.4161 219.604 51.1664 218.356C50.6445 215.732 52.4069 213.258 53.9122 211.057C54.1439 210.762 54.323 210.429 54.4416 210.074C54.7215 209.06 54.1088 207.948 54.1012 206.927C54.095 206.633 54.1626 206.341 54.2979 206.08C54.5173 205.649 54.9408 205.323 55.1678 204.93C55.4092 204.379 55.4829 203.768 55.3796 203.175C55.0972 199.368 54.6383 195.586 54.0029 191.829C53.9424 191.496 53.8819 191.148 53.7987 190.808C53.6908 190.279 53.5047 189.769 53.2465 189.295C52.891 188.682 52.3691 188.191 52.0212 187.578C51.8494 187.234 51.76 186.855 51.76 186.47C51.76 186.085 51.8494 185.706 52.0212 185.362C52.3615 184.727 51.4312 184.174 51.1362 183.516C51.0095 183.004 50.9812 182.473 51.053 181.951C50.9453 181.066 50.6061 180.226 50.0697 179.515C49.4041 178.463 48.7384 177.42 48.0577 176.383C45.0321 171.689 41.878 167.075 38.5952 162.541C37.0371 160.37 35.4411 158.207 33.83 156.074C32.5214 154.349 31.175 152.602 30.517 150.537C30.4005 150.178 30.3095 149.812 30.2447 149.44C29.8793 147.457 30.1631 145.41 31.054 143.601C31.9355 142.1 32.948 140.68 34.0796 139.357C35.1505 137.735 36.3121 136.174 37.559 134.683C38.1882 133.94 38.9606 133.332 39.8299 132.894C40.6993 132.456 41.6479 132.197 42.6192 132.134C43.7462 132.134 45.0624 132.451 45.8415 131.642C46.1289 131.355 46.2802 130.969 46.5978 130.689C47.4223 129.933 48.7763 130.439 49.7671 130.999L68.8131 141.763L71.8991 143.518C72.4589 143.85 73.0337 144.183 73.5935 144.524C76.2358 146.066 78.7682 147.79 81.1725 149.682C84.6973 152.511 88.6078 155.113 91.6788 158.426C91.9738 158.736 92.2536 159.047 92.5259 159.372C93.0806 155.499 93.6353 151.621 94.19 147.738C94.395 146.621 94.4686 145.484 94.4093 144.35C94.2655 143.235 93.9913 142.141 93.5925 141.09C93.4714 140.711 93.3428 140.333 93.2218 139.955C92.5335 137.897 91.8452 135.848 91.1644 133.79C90.1584 130.765 89.0844 127.641 86.8152 125.417C86.2641 124.948 85.7577 124.429 85.3024 123.866C85.0873 123.585 84.9411 123.257 84.8754 122.909C84.8097 122.561 84.8264 122.202 84.9242 121.862L100.967 126.869C101.724 127.111 102.48 127.346 103.236 127.625C104.124 128.013 104.954 128.522 105.702 129.138C106.909 130.099 107.846 131.355 108.423 132.785C109 134.216 109.196 135.771 108.993 137.3C108.834 138.306 108.486 139.259 108.274 140.25C107.903 142.043 107.329 144.108 108.108 145.772C108.887 147.436 109.62 148.903 110.324 150.469C110.932 151.662 111.438 152.904 111.837 154.183C112.275 155.93 112.451 157.732 112.359 159.531C112.263 163.544 111.57 167.521 110.301 171.331C109.825 172.533 109.348 173.759 108.97 175.014Z" fill="#454B69"/>
<path d="M76.233 184.031L114.273 180.453L120.921 179.704L114.81 181.867L76.233 184.031Z" fill="#3F3D56"/>
<path d="M75.3781 185.876V183.009L115.702 181.02L117.669 182.707L75.3781 185.876Z" fill="#3F3D56"/>
<path d="M75.5069 180.423C76.354 180.196 77.2617 180.241 78.1164 180.037C79.2284 179.772 80.2268 179.091 81.3614 178.948C82.061 178.892 82.7649 178.943 83.4491 179.099L88.6683 180.007C89.0692 180.082 89.5382 180.203 89.6819 180.589C89.7201 180.763 89.7108 180.944 89.6549 181.113C89.599 181.282 89.4986 181.433 89.3642 181.55C88.4262 182.541 86.9286 182.684 85.5822 182.767L81.9439 182.987C81.2352 182.976 80.5343 183.136 79.9016 183.456C79.5968 183.63 79.3622 183.905 79.238 184.234C79.1138 184.562 79.1077 184.924 79.2208 185.256C79.4158 185.586 79.7057 185.85 80.0528 186.012C81.5025 186.811 83.1693 187.127 84.8106 186.913C86.1368 186.661 87.4379 186.291 88.6986 185.808C91.8994 184.781 95.2775 184.423 98.6226 184.757C99.4924 184.84 100.506 185.09 100.816 185.907C100.898 186.194 100.91 186.497 100.849 186.789C100.788 187.081 100.658 187.355 100.468 187.586C99.1672 189.394 96.5803 189.454 94.417 189.946C92.3488 190.418 90.4352 191.41 88.8574 192.828C89.3415 193.819 88.9406 194.999 88.4565 195.982C87.9091 197.12 87.2557 198.204 86.505 199.219C86.1009 199.85 85.5337 200.36 84.8636 200.694C84.4228 200.847 83.9608 200.928 83.4945 200.936C78.9747 201.203 74.4393 200.949 69.9775 200.18C69.4959 200.146 69.0387 199.955 68.6765 199.635C68.4464 199.328 68.3028 198.965 68.2605 198.584C67.7991 196.315 67.3906 194.045 67.0427 191.723C66.7028 190.284 66.8409 188.773 67.436 187.419C67.9958 186.368 68.8732 186.028 69.7657 185.317C71.7021 183.781 72.9426 181.103 75.5069 180.423Z" fill="#FBBEBE"/>
<path d="M142.35 188.857C144.62 187.427 145.263 184.537 146.299 182.094C147.13 180.303 148.086 178.571 149.158 176.913C150.066 175.4 150.973 173.592 150.255 171.996C149.688 170.978 148.751 170.217 147.638 169.871C146.634 169.388 145.499 169.248 144.408 169.47C143.182 169.803 142.275 170.816 141.45 171.777L138.515 175.181C137.258 176.812 135.746 178.229 134.037 179.379C132.963 179.976 131.826 180.455 130.649 180.808C128.546 181.504 126.413 182.117 124.257 182.631C123.018 182.873 121.808 183.249 120.649 183.751C120.417 183.837 120.203 183.968 120.022 184.137C119.84 184.306 119.693 184.509 119.59 184.734C119.496 185.301 119.629 185.883 119.961 186.353C120.717 187.737 121.557 190.558 123.107 191.05C124.584 191.415 126.09 191.651 127.608 191.754C129.121 191.912 130.263 191.307 131.602 190.74C133.29 190.098 135.092 189.81 136.897 189.893C138.44 189.863 141.133 190.082 142.35 188.857Z" fill="#FBBEBE"/>
<path d="M122.858 182.51C122.858 182.51 124.197 191.519 132.593 190.528C132.593 190.528 128.122 192.306 128.591 193.304C129.06 194.303 118.229 191.36 118.229 191.36L117.669 186.663C117.669 186.663 117.313 184.068 117.669 184C118.024 183.932 122.858 182.51 122.858 182.51Z" fill="#454B69"/>
<path opacity="0.1" d="M122.858 182.51C122.858 182.51 124.197 191.519 132.593 190.528C132.593 190.528 128.122 192.306 128.591 193.304C129.06 194.303 118.229 191.36 118.229 191.36L117.669 186.663C117.669 186.663 117.313 184.068 117.669 184C118.024 183.932 122.858 182.51 122.858 182.51Z" fill="black"/>
<path opacity="0.1" d="M84.0541 144.864C84.8825 145.28 85.5635 145.94 86.0056 146.755C86.7112 147.874 87.2441 149.093 87.5865 150.371C88.0025 151.883 88.1992 153.661 89.3489 154.78" fill="black"/>
<path opacity="0.1" d="M48.7538 169.818C49.3691 172.009 49.1144 174.353 48.0428 176.361C45.0172 171.666 41.8629 167.052 38.5802 162.518C37.022 160.348 35.4259 158.184 33.8148 156.051C32.5062 154.327 31.1598 152.579 30.5018 150.514C30.3853 150.156 30.2943 149.789 30.2294 149.418C31.0362 148.217 32.2464 147.345 33.6408 146.959C35.8495 153.366 41.4469 157.957 45.4559 163.434C46.9531 165.331 48.0726 167.499 48.7538 169.818Z" fill="black"/>
<path opacity="0.1" d="M76.9514 202.631L63.6992 203.084C62.5722 203.122 61.1804 203.342 60.8249 204.416C60.719 204.756 60.7341 205.127 60.6282 205.467C60.2576 206.67 58.6464 206.813 57.3832 206.806C56.2865 206.806 55.1897 206.851 54.1005 206.935C54.0942 206.64 54.1618 206.349 54.2971 206.087C54.5165 205.656 54.9401 205.331 55.167 204.938C55.4085 204.386 55.4821 203.776 55.3788 203.183C55.0964 199.376 54.6375 195.593 54.0021 191.837C53.9416 191.504 53.8811 191.156 53.7979 190.816C54.8242 190.139 56.0254 189.776 57.2547 189.772C58.3439 189.893 59.3423 190.528 60.4316 190.475C62.3226 190.377 63.6311 188.266 65.5222 188.145C65.9261 188.175 66.3319 188.126 66.7173 188.002C67.3148 187.699 67.4132 186.905 67.7233 186.315C68.1771 185.437 69.4479 185.226 70.4085 185.453C70.3823 187.456 70.5112 189.459 70.7943 191.443C70.889 192.312 71.0923 193.166 71.3994 193.985C71.7602 194.814 72.2117 195.6 72.7458 196.33C74.1679 198.448 75.5294 200.498 76.9514 202.631Z" fill="black"/>
<path d="M32.9148 146.241C30.5624 146.831 28.8907 149.039 28.2024 151.369C27.5141 153.699 27.6351 156.18 27.7032 158.608C27.9352 167.619 27.3198 176.632 25.8651 185.528C25.1692 189.794 24.2767 194.076 24.5414 198.387C24.6851 200.724 25.2222 203.137 26.7199 204.938C29.0874 207.767 33.2022 208.349 36.8935 208.205C43.5196 207.948 50.0247 206.004 56.6584 206.05C57.9216 206.05 59.5251 205.906 59.9033 204.703C60.0092 204.37 59.9865 204 60.1 203.659C60.4479 202.585 61.8397 202.358 62.9743 202.32L76.2266 201.874C74.8045 199.779 73.443 197.722 72.0209 195.626C71.4888 194.894 71.035 194.108 70.667 193.281C70.3634 192.459 70.1602 191.603 70.0619 190.732C69.781 188.751 69.6546 186.75 69.6836 184.749C68.723 184.53 67.4144 184.749 66.9908 185.604C66.6807 186.201 66.5824 186.988 65.9924 187.291C65.6061 187.423 65.1963 187.472 64.7897 187.434C62.9063 187.563 61.5977 189.704 59.7067 189.772C58.6175 189.825 57.6114 189.182 56.5298 189.068C54.8127 188.887 53.2772 190.021 51.7039 190.717C50.4136 191.282 49.0203 191.574 47.6118 191.574C46.2032 191.574 44.8099 191.282 43.5196 190.717C43.1338 190.551 42.7027 190.067 43.0204 189.779C43.3381 189.492 43.5877 189.734 43.8449 189.613C44.329 189.371 43.9735 188.652 43.7087 188.183C42.9523 186.829 43.4818 185.158 44.2155 183.751C44.9492 182.344 45.9098 181.02 45.9325 179.462C45.8857 178.959 45.8857 178.452 45.9325 177.949C46.171 177.239 46.5491 176.583 47.0445 176.02C47.6803 174.993 48.0947 173.844 48.2614 172.647C48.4282 171.45 48.3434 170.231 48.0127 169.069C47.3283 166.752 46.2062 164.587 44.7072 162.692C40.7285 157.246 35.1311 152.647 32.9148 146.241Z" fill="#454B69"/>
<path opacity="0.1" d="M68.7607 141.74L71.8469 143.495C70.9007 143.934 69.9311 144.32 68.9423 144.652C61.9834 146.99 64.4644 150.234 57.1272 150.144C52.1274 150.091 46.4241 149.705 42.922 153.275C41.273 154.954 40.4409 157.254 39.6543 159.478C39.2912 160.491 38.9357 161.505 38.5802 162.503C37.022 160.333 35.426 158.169 33.8148 156.036C32.5063 154.312 31.1599 152.564 30.5018 150.499C29.785 148.204 29.9773 145.721 31.0388 143.563C31.9204 142.062 32.9329 140.642 34.0645 139.32C35.1354 137.697 36.2971 136.136 37.5439 134.645C38.1732 133.902 38.9455 133.294 39.8149 132.856C40.6843 132.418 41.6329 132.16 42.6043 132.096C43.7313 132.096 45.0475 132.414 45.8266 131.604C46.114 131.317 46.2653 130.931 46.583 130.651C47.4074 129.895 48.7614 130.402 49.7523 130.961L68.7607 141.74Z" fill="black"/>
<path d="M87.1706 83.928C87.0689 83.0221 86.845 82.134 86.505 81.2882C86.1789 80.6364 85.764 80.0331 85.272 79.4955C83.6686 77.6884 81.7036 76.2383 79.5041 75.2389C77.3047 74.2395 74.9199 73.7131 72.5042 73.6939C72.0837 73.6665 71.6624 73.7337 71.2712 73.8905C71.1737 73.9341 71.0822 73.99 70.9989 74.0569C67.512 71.7045 63.435 69.3975 59.6531 68.4822C57.0293 67.8664 54.2947 67.9028 51.6883 68.5881C48.519 69.5412 47.4147 72.0676 46.0683 74.8285C43.9024 79.2682 40.608 83.0609 36.515 85.8266C33.8828 87.6041 30.7589 89.1321 29.4957 92.0442C28.3158 94.7597 29.1175 97.8761 29.3974 100.826C29.7251 104.812 29.0632 108.817 27.4705 112.485C25.8778 116.154 23.4036 119.372 20.2678 121.854C16.6673 124.645 11.8642 126.975 11.1003 131.461C10.5557 134.653 12.3483 137.716 13.7023 140.658C16.569 146.876 17.5523 154.47 14.1864 160.431C13.2258 162.125 11.9172 163.676 11.4255 165.552C10.5254 168.887 12.4391 172.511 15.2907 174.447C18.1423 176.383 21.7352 176.913 25.1843 176.898C27.6955 176.898 30.411 176.52 32.1885 174.757C33.2931 173.485 34.0971 171.98 34.5409 170.355C35.9931 166.245 37.4479 162.138 38.9052 158.033C39.6616 155.809 40.5239 153.495 42.1729 151.83C45.6674 148.26 51.3781 148.638 56.3703 148.699C63.7149 148.79 61.2339 145.552 68.1852 143.207C72.2697 141.831 76.7097 139.486 77.6627 135.28C78.6158 131.075 75.7869 127.262 73.3135 123.859C71.4578 121.337 69.708 118.728 68.0641 116.03C66.453 113.428 64.9175 110.682 64.4713 107.656C63.7149 102.626 75.9306 99.8201 77.7611 95.0774C78.2835 93.7392 78.723 92.37 79.0772 90.9777C79.9546 90.9097 80.7639 90.8264 81.3464 90.8037C83.6836 90.6979 86.3083 89.7826 87.1101 87.589C87.4367 86.393 87.4575 85.1342 87.1706 83.928Z" fill="#3F3D56"/>
<g opacity="0.1">
<path opacity="0.1" d="M66.5524 20.2216C67.0719 20.0239 67.6275 19.9387 68.1824 19.9716H68.4124C65.0012 17.8212 61.2959 16.1773 57.4124 15.0916L56.4824 14.9016C59.8869 16.4683 63.152 18.3216 66.2424 20.4416C66.3391 20.3593 66.4428 20.2857 66.5524 20.2216Z" fill="black"/>
<path opacity="0.1" d="M93.7008 35.5117C93.5663 34.3139 93.2703 33.1399 92.8208 32.0217C92.3922 31.1586 91.8434 30.3606 91.1908 29.6516C87.7717 25.8008 83.1521 23.2179 78.081 22.3217C80.7424 23.6158 83.1214 25.4239 85.0809 27.6417C85.7376 28.3437 86.2869 29.1389 86.7109 30.0016C87.1685 31.1207 87.4648 32.2992 87.5909 33.5016C87.9767 35.0945 87.9561 36.7588 87.5309 38.3416C86.4809 41.2416 83.0009 42.4517 79.921 42.5817C79.171 42.5817 78.091 42.7316 76.9211 42.8116C76.4543 44.656 75.8732 46.4695 75.1811 48.2416C72.7611 54.5016 56.6414 58.2416 57.6214 64.8716C58.2014 68.8716 60.2413 72.5017 62.3613 75.9417C64.4813 79.3816 66.8612 82.9417 69.3012 86.2917C72.5711 90.7917 76.301 95.9617 75.0511 101.392C73.8011 106.822 67.9312 110.052 62.5313 111.872C53.3315 114.972 56.6114 119.252 46.9116 119.132C40.3017 119.052 32.7518 118.552 28.1319 123.272C25.9519 125.492 24.852 128.532 23.812 131.472L18.0421 147.762C17.4533 149.908 16.3943 151.896 14.9421 153.582C12.5822 155.912 8.99225 156.392 5.6823 156.402C3.79714 156.422 1.91366 156.282 0.0523987 155.982C3.57234 157.892 7.76226 158.442 11.8022 158.422C15.1221 158.422 18.7121 157.922 21.062 155.592C22.5223 153.91 23.5853 151.92 24.172 149.772C26.0919 144.345 28.0152 138.915 29.9419 133.482C30.9419 130.542 32.0818 127.482 34.2618 125.282C38.8817 120.562 46.4316 121.062 53.0315 121.142C62.7413 121.262 59.4614 116.982 68.6512 113.882C74.0511 112.062 79.921 108.962 81.181 103.402C82.4409 97.8416 78.701 92.8017 75.4311 88.3017C72.9778 84.9683 70.6645 81.5183 68.4912 77.9517C66.3612 74.5117 64.3313 70.8817 63.7413 66.8817C62.7413 60.2317 78.891 56.5216 81.311 50.2516C82.0016 48.4824 82.5827 46.6723 83.0509 44.8317C84.2109 44.7417 85.2809 44.6317 86.0509 44.6017C89.1408 44.4617 92.6108 43.2517 93.6708 40.3517C94.0861 38.7663 94.0964 37.102 93.7008 35.5117Z" fill="black"/>
</g>
<path d="M532.102 146.313C526.203 140.479 519.065 135.977 511.19 133.124C506.135 131.297 500.633 130.169 495.348 131.206C490.063 132.243 485.065 135.809 483.591 140.867C482.385 145.002 483.63 149.455 485.501 153.348C487.372 157.241 489.87 160.851 491.383 164.89C492.927 169.01 493.391 173.441 492.734 177.781C492.076 182.121 490.318 186.232 487.619 189.741C484.919 193.25 481.364 196.046 477.275 197.875C473.187 199.704 468.695 200.508 464.208 200.214C469.4 200.893 474.187 203.273 479.262 204.54C484.338 205.807 490.328 205.721 494.1 202.174C498.091 198.422 498.171 192.321 497.978 186.917L497.117 162.821C496.971 158.724 496.846 154.497 498.361 150.674C499.875 146.85 503.475 143.502 507.677 143.537C510.862 143.563 513.68 145.445 516.234 147.301C518.788 149.157 521.492 151.137 524.664 151.413C527.836 151.689 531.459 149.399 531.221 146.301" fill="#2F2E41"/>
<path d="M623.746 322.527H615.302V334.01H623.746V322.527Z" fill="#A0616A"/>
<path d="M666.638 322.527H658.195V334.01H666.638V322.527Z" fill="#A0616A"/>
<path d="M672.495 227.284C671.771 227.284 671.056 227.128 670.399 226.825C669.742 226.522 669.158 226.081 668.687 225.531C668.217 224.981 667.871 224.336 667.674 223.639C667.477 222.943 667.433 222.212 667.545 221.498L668.928 212.682L669.339 210.06H675.756L676.094 213.775L677.43 221.41C677.556 222.13 677.523 222.869 677.333 223.575C677.143 224.281 676.801 224.937 676.331 225.497C675.861 226.057 675.274 226.507 674.611 226.816C673.948 227.124 673.226 227.284 672.495 227.284Z" fill="#A0616A"/>
<path d="M609.676 226.271C608.953 226.271 608.238 226.114 607.581 225.812C606.923 225.509 606.339 225.068 605.869 224.518C605.399 223.968 605.053 223.322 604.856 222.626C604.659 221.93 604.615 221.199 604.727 220.484L606.11 211.668L606.521 209.047H612.938L613.276 212.762L614.612 220.397C614.738 221.117 614.705 221.856 614.515 222.562C614.325 223.268 613.983 223.924 613.513 224.484C613.042 225.044 612.455 225.494 611.792 225.802C611.13 226.111 610.408 226.271 609.676 226.271Z" fill="#A0616A"/>
<path d="M667.65 324.891L657.519 324.553L640.97 224.583L624.421 324.891L614.627 324.553L611.925 209.046H668.664L667.65 324.891Z" fill="#2F2E41"/>
<path d="M623.534 341.982C614.937 342.231 608.208 339.907 603.796 334.39C603.332 333.809 603.057 333.1 603.008 332.358C602.959 331.617 603.137 330.878 603.52 330.24C603.881 329.639 604.407 329.155 605.037 328.845C605.666 328.536 606.371 328.415 607.068 328.496L609.861 328.822L615.678 325.916C614.488 332.836 617.725 332.966 625.467 330.647L626.862 337.795C626.96 338.294 626.949 338.809 626.829 339.303C626.708 339.797 626.482 340.26 626.166 340.658C625.849 341.056 625.45 341.381 624.995 341.609C624.541 341.838 624.042 341.965 623.534 341.982Z" fill="#2F2E41"/>
<path d="M666.427 341.982C657.83 342.231 651.101 339.907 646.689 334.39C646.225 333.809 645.95 333.1 645.901 332.358C645.852 331.617 646.03 330.878 646.413 330.24C646.774 329.639 647.301 329.155 647.93 328.845C648.559 328.536 649.264 328.415 649.96 328.496L652.754 328.823L658.527 326.387C657.337 333.307 660.618 332.966 668.36 330.647L669.755 337.795C669.853 338.294 669.842 338.809 669.722 339.303C669.601 339.797 669.375 340.26 669.059 340.658C668.742 341.056 668.343 341.381 667.888 341.609C667.434 341.838 666.935 341.965 666.427 341.982Z" fill="#2F2E41"/>
<path d="M637.593 103.334C645.054 103.334 651.103 97.2858 651.103 89.8247C651.103 82.3636 645.054 76.3152 637.593 76.3152C630.132 76.3152 624.083 82.3636 624.083 89.8247C624.083 97.2858 630.132 103.334 637.593 103.334Z" fill="#A0616A"/>
<path d="M651.102 114.48L636.58 115.155L635.904 99.957L648.401 95.2288L651.102 114.48Z" fill="#A0616A"/>
<path d="M672.041 213.775C652.237 210.027 629.674 208.685 614.627 213.775L619.355 114.48L635.228 109.751L636.41 107.894L649.751 105.698L656.168 107.725L660.221 113.804L677.783 123.599C669.138 157.04 666.577 187.424 672.041 213.775Z" fill="#2F2E41"/>
<path d="M681.498 213.099L666.975 211.411C670.002 196.662 668.764 177.478 669.508 158.217C669.98 146.001 672.513 134.884 673.392 121.234C678.9 122.671 681.751 127.785 681.784 133.812C681.94 162.399 684.64 189.184 681.498 213.099Z" fill="#2F2E41"/>
<path d="M618.342 211.748L604.157 210.735L612.6 162.776L615.459 122.867C615.014 117.047 618.125 113.665 622.732 113.467C632.798 125.386 633.965 141.812 630.838 160.412L618.342 211.748Z" fill="#2F2E41"/>
<path d="M641.974 99.7576L640.232 94.7981C639.255 92.0153 637.539 89.5508 635.269 87.668C632.998 85.7852 630.259 84.5551 627.343 84.1093L616.425 83.859L619.456 78.9872C620.918 76.6378 623.009 74.7449 625.492 73.5228C627.974 72.3008 630.75 71.7986 633.503 72.0731L644.415 73.1608C647.013 73.4197 649.403 74.6959 651.063 76.7106C652.723 78.7254 653.519 81.3151 653.277 83.9145L652.276 94.6462C652.169 95.7934 651.77 96.8943 651.118 97.8442C650.466 98.7941 649.582 99.5615 648.55 100.074C647.518 100.586 646.372 100.826 645.221 100.77C644.07 100.715 642.953 100.366 641.974 99.7576Z" fill="#2F2E41"/>
<defs>
<linearGradient id="paint0_linear" x1="130218" y1="303738" x2="130218" y2="111867" gradientUnits="userSpaceOnUse">
<stop stop-color="#808080" stop-opacity="0.25"/>
<stop offset="0.54" stop-color="#808080" stop-opacity="0.12"/>
<stop offset="1" stop-color="#808080" stop-opacity="0.1"/>
</linearGradient>
</defs>
</svg>
