<svg width="225" height="192" viewBox="0 0 225 192" fill="none" xmlns="http://www.w3.org/2000/svg">
<g id="Icon Illustrations">
<g id="Oval 2 Copy 2" opacity="0.24" filter="url(#filter0_f)">
<ellipse cx="135.574" cy="92.0016" rx="27.6901" ry="28.9511" fill="#FF7EFA" fill-opacity="0.98"/>
</g>
<path id="Path 33" d="M87.5565 179.851L115.708 162.416V128.175L87.5565 146.14V179.851Z" fill="url(#paint0_linear)"/>
<path id="Path 34" d="M87.5737 180.116L60.6647 164.009V128.668L87.5737 146.435V180.116Z" fill="url(#paint1_linear)"/>
<path id="Path 34 Copy" opacity="0.4" d="M83.3089 171.962L64.9294 160.961V136.822L83.3089 148.957V171.962Z" stroke="url(#paint2_linear)" stroke-width="0.627603"/>
<g id="Group 39">
<path id="Path 7 Copy" opacity="0.405357" d="M88.1259 137.035L74.2954 128.655L17.2119 21.6545H90.5137L99.9806 128.655L88.1259 137.035Z" fill="url(#paint3_linear)"/>
<path id="Path 7" opacity="0.405357" d="M99.9806 128.763L127.642 29.5025H74.2954L94.0533 141.171L99.9806 128.763Z" fill="url(#paint4_linear)"/>
<g id="Group 23">
<path id="Combined Shape" d="M114.079 87.4128C117.387 85.128 119.717 84.8792 121.137 85.9383L123.378 87.1783L122.853 87.9784C124.567 93.3971 120.143 105.753 110.858 111.627C108.903 112.863 107.298 113.484 106.018 113.611L105.532 114.351L103.915 113.258C99.0121 110.601 103.65 94.6152 114.079 87.4128Z" fill="#D7911D"/>
<path id="Path 10" d="M116.777 88.5826C103.2 97.9976 98.7211 122.245 113.147 113.083C127.572 103.92 130.353 79.1677 116.777 88.5826Z" fill="url(#paint5_linear)"/>
<path id="Path 10 Copy 2" opacity="0.4" d="M116.051 92.3024C106.329 99.2648 103.314 116.669 113.644 109.893C123.973 103.117 125.773 85.3399 116.051 92.3024Z" stroke="#D7911D" stroke-width="0.363196"/>
</g>
<g id="Group 23 Copy 8">
<path id="Combined Shape_2" d="M46.1687 82.4597C42.2688 83.122 40.0451 82.3459 39.1547 80.7667L37.5832 78.6684L38.3706 78.1638C38.886 72.4754 47.6731 63.0934 58.4116 61.7267C60.6723 61.439 62.377 61.5631 63.5949 61.9987L64.3237 61.5316L65.3806 63.2271C68.8391 67.7659 58.462 80.3718 46.1687 82.4597Z" fill="#D7911D"/>
<path id="Path 10_2" d="M44.1533 80.229C60.1723 77.4758 73.5773 57.2535 56.8797 59.4108C40.1822 61.5682 28.1343 82.9821 44.1533 80.229Z" fill="url(#paint6_linear)"/>
<path id="Path 10 Copy 2_2" opacity="0.4" d="M46.2448 77.1432C57.8002 74.9701 67.2396 60.3692 55.2006 62.1103C43.1615 63.8514 34.6894 79.3164 46.2448 77.1432Z" stroke="#D7911D" stroke-width="0.363196"/>
</g>
<g id="Group 23 Copy 7">
<path id="Combined Shape_3" d="M105.994 53.3068C105.983 50.4472 106.734 48.9969 107.869 48.6145L109.419 47.8318L109.665 48.4671C113.348 49.7206 118.559 57.3973 118.29 65.2003C118.233 66.843 117.966 68.0284 117.548 68.821L117.775 69.4091L116.546 69.891C113.187 71.6258 106.03 62.3214 105.994 53.3068Z" fill="#D7911D"/>
<path id="Path 10_3" d="M107.559 52.413C107.627 64.1646 119.461 76.7995 119.858 64.6615C120.255 52.5234 107.491 40.6614 107.559 52.413Z" fill="url(#paint7_linear)"/>
<path id="Path 10 Copy 3" opacity="0.3" d="M108.92 53.7779C108.973 62.9144 118.173 72.7377 118.482 63.3007C118.791 53.8637 108.867 44.6413 108.92 53.7779Z" stroke="#D7911D" stroke-width="0.363196"/>
</g>
</g>
<path id="Path 35" d="M60.6647 128.94L88.2988 112.884L115.291 128.446L87.6014 146.337L60.6647 128.94Z" fill="url(#paint8_linear)"/>
<path id="Path 35_2" d="M74.3465 129.319L88.1891 121.269L101.71 129.072L87.8398 138.041L74.3465 129.319Z" fill="url(#paint9_linear)"/>
<g id="Oval 2" opacity="0.405357" filter="url(#filter1_f)">
<ellipse cx="113.033" cy="155.946" rx="17.6919" ry="18.4976" fill="#FFC37E" fill-opacity="0.98"/>
</g>
<g id="Oval 2 Copy" opacity="0.405357" filter="url(#filter2_f)">
<ellipse cx="55.5431" cy="133.933" rx="16.8119" ry="17.5774" fill="#FF7E95" fill-opacity="0.98"/>
</g>
<path id="Path 53" d="M88.5 128.668V101.922L99.4957 92.937C99.9333 92.5795 100.187 92.0442 100.187 91.4791V74.4088" stroke="url(#paint10_linear)" stroke-width="0.627603"/>
<path id="Path 54" d="M88.4592 101.833V90.8242C88.4592 89.7844 87.6163 88.9414 86.5764 88.9414H78.5925V74.9021" stroke="url(#paint11_linear)" stroke-width="0.627603"/>
<ellipse id="Oval 5" cx="78.8285" cy="75.1488" rx="2.12304" ry="2.2197" fill="url(#paint12_linear)"/>
<ellipse id="Oval 5_2" cx="100.059" cy="75.1488" rx="2.12304" ry="2.2197" fill="url(#paint13_linear)"/>
<ellipse id="Oval 5_3" cx="88.736" cy="101.292" rx="2.12304" ry="2.2197" fill="url(#paint14_linear)"/>
<g id="Group 23 Copy 6">
<path id="Combined Shape_4" d="M58.9536 93.9435C60.5314 90.6951 62.196 89.4652 63.7033 89.6568L65.9071 89.6234L65.8343 90.4793C69.3387 93.9294 71.0134 105.504 66.3655 114.202C65.387 116.033 64.4231 117.23 63.5044 117.897L63.4371 118.69L61.7666 118.559C56.969 118.675 53.9796 104.183 58.9536 93.9435Z" fill="#D7911D"/>
<path id="Path 10_4" d="M61.2368 93.7924C54.777 107.153 61.2493 127.997 68.4551 114.455C75.6608 100.913 67.6965 80.432 61.2368 93.7924Z" fill="url(#paint15_linear)"/>
<path id="Path 10 Copy 4" opacity="0.4" d="M62.1635 96.4762C57.3832 106.363 62.1728 121.788 67.505 111.766C72.8372 101.745 66.9437 86.5895 62.1635 96.4762Z" stroke="#D7911D" stroke-width="0.363196"/>
<path id="Combined Shape_5" opacity="0.2" fill-rule="evenodd" clip-rule="evenodd" d="M71.0613 106.048C66.6442 108.352 62.9173 112.139 60.2989 116.081C62.117 119.732 65.1242 120.311 68.35 114.384C69.7792 111.759 70.644 108.883 71.0613 106.048Z" fill="black"/>
</g>
</g>
<defs>
<filter id="filter0_f" x="46.8668" y="2.03358" width="177.414" height="179.936" filterUnits="userSpaceOnUse" color-interpolation-filters="sRGB">
<feFlood flood-opacity="0" result="BackgroundImageFix"/>
<feBlend mode="normal" in="SourceGraphic" in2="BackgroundImageFix" result="shape"/>
<feGaussianBlur stdDeviation="10.1695" result="effect1_foregroundBlur"/>
</filter>
<filter id="filter1_f" x="80.0866" y="122.194" width="65.8923" height="67.5036" filterUnits="userSpaceOnUse" color-interpolation-filters="sRGB">
<feFlood flood-opacity="0" result="BackgroundImageFix"/>
<feBlend mode="normal" in="SourceGraphic" in2="BackgroundImageFix" result="shape"/>
<feGaussianBlur stdDeviation="2.54237" result="effect1_foregroundBlur"/>
</filter>
<filter id="filter2_f" x="1.68519" y="79.3096" width="107.716" height="109.247" filterUnits="userSpaceOnUse" color-interpolation-filters="sRGB">
<feFlood flood-opacity="0" result="BackgroundImageFix"/>
<feBlend mode="normal" in="SourceGraphic" in2="BackgroundImageFix" result="shape"/>
<feGaussianBlur stdDeviation="6.17433" result="effect1_foregroundBlur"/>
</filter>
<linearGradient id="paint0_linear" x1="104.171" y1="68.0731" x2="14.7398" y2="97.6529" gradientUnits="userSpaceOnUse">
<stop stop-color="#EDB64F"/>
<stop offset="1" stop-color="#DD26BC"/>
</linearGradient>
<linearGradient id="paint1_linear" x1="101.268" y1="154.612" x2="46.4409" y2="123.354" gradientUnits="userSpaceOnUse">
<stop stop-color="#6B1B98"/>
<stop offset="1" stop-color="#DE0F62"/>
</linearGradient>
<linearGradient id="paint2_linear" x1="62.8261" y1="128.037" x2="38.4339" y2="159.393" gradientUnits="userSpaceOnUse">
<stop stop-color="#FFD599"/>
<stop offset="0.482372" stop-color="#D178A0"/>
<stop offset="1" stop-color="#FFCE08"/>
</linearGradient>
<linearGradient id="paint3_linear" x1="38.0251" y1="33.9608" x2="38.0251" y2="185.136" gradientUnits="userSpaceOnUse">
<stop stop-color="#FDF27D" stop-opacity="0.01"/>
<stop offset="0.4936" stop-color="#FCF17B" stop-opacity="0.240234"/>
<stop offset="1" stop-color="#FBF079"/>
</linearGradient>
<linearGradient id="paint4_linear" x1="64.0579" y1="42" x2="64.0579" y2="150.388" gradientUnits="userSpaceOnUse">
<stop stop-color="#FDF27D" stop-opacity="0.01"/>
<stop offset="0.4936" stop-color="#FCF17B" stop-opacity="0.240234"/>
<stop offset="1" stop-color="#FBF079"/>
</linearGradient>
<linearGradient id="paint5_linear" x1="100.964" y1="81.4417" x2="88.1394" y2="116.956" gradientUnits="userSpaceOnUse">
<stop stop-color="#FFF585"/>
<stop offset="1" stop-color="#DCC613"/>
</linearGradient>
<linearGradient id="paint6_linear" x1="55.8565" y1="93.5636" x2="81.7571" y2="67.1778" gradientUnits="userSpaceOnUse">
<stop stop-color="#FFF585"/>
<stop offset="1" stop-color="#DCC613"/>
</linearGradient>
<linearGradient id="paint7_linear" x1="97.523" y1="58.5997" x2="113.308" y2="80.1056" gradientUnits="userSpaceOnUse">
<stop stop-color="#FFF585"/>
<stop offset="1" stop-color="#DCC613"/>
</linearGradient>
<linearGradient id="paint8_linear" x1="107.201" y1="90.5264" x2="49.5055" y2="152.319" gradientUnits="userSpaceOnUse">
<stop stop-color="#EDB64F"/>
<stop offset="0.977895" stop-color="#E64082"/>
</linearGradient>
<linearGradient id="paint9_linear" x1="96.274" y1="119.439" x2="62.9369" y2="119.439" gradientUnits="userSpaceOnUse">
<stop stop-color="#FFD066"/>
<stop offset="1" stop-color="#CE1D64"/>
</linearGradient>
<linearGradient id="paint10_linear" x1="87.1625" y1="60.844" x2="55.0267" y2="77.8562" gradientUnits="userSpaceOnUse">
<stop stop-color="#FFD599"/>
<stop offset="0.482372" stop-color="#D178A0"/>
<stop offset="1" stop-color="#FFE26F"/>
</linearGradient>
<linearGradient id="paint11_linear" x1="73.1228" y1="71.3016" x2="55.2878" y2="122.833" gradientUnits="userSpaceOnUse">
<stop stop-color="#FFD599"/>
<stop offset="1" stop-color="#A014A8"/>
</linearGradient>
<linearGradient id="paint12_linear" x1="240.223" y1="227.06" x2="235.631" y2="214.937" gradientUnits="userSpaceOnUse">
<stop stop-color="#FFFCF5"/>
<stop offset="1" stop-color="#FFEFAD"/>
</linearGradient>
<linearGradient id="paint13_linear" x1="303.913" y1="227.06" x2="299.321" y2="214.937" gradientUnits="userSpaceOnUse">
<stop stop-color="#FFFCF5"/>
<stop offset="1" stop-color="#FFEFAD"/>
</linearGradient>
<linearGradient id="paint14_linear" x1="269.945" y1="305.49" x2="265.353" y2="293.366" gradientUnits="userSpaceOnUse">
<stop stop-color="#FFFCF5"/>
<stop offset="1" stop-color="#FFEFAD"/>
</linearGradient>
<linearGradient id="paint15_linear" x1="46.3444" y1="95.2768" x2="52.3482" y2="128.362" gradientUnits="userSpaceOnUse">
<stop stop-color="#FFF585"/>
<stop offset="1" stop-color="#DCC613"/>
</linearGradient>
</defs>
</svg>
